%TF.GenerationSoftware,KiCad,Pcbnew,9.0.6*%
%TF.CreationDate,2026-08-20T01:04:15+02:00*%
%TF.ProjectId,wyse-mod-pcb,77797365-2d6d-46f6-942d-7063622e6b69,rev?*%
%TF.SameCoordinates,Original*%
%TF.FileFunction,Legend,Bot*%
%TF.FilePolarity,Positive*%
%FSLAX46Y46*%
G04 Gerber Fmt 4.6, Leading zero omitted, Abs format (unit mm)*
G04 Created by KiCad (PCBNEW 9.0.6) date 2026-08-20 01:04:15*
%MOMM*%
%LPD*%
G01*
G04 APERTURE LIST*
G04 Aperture macros list*
%AMRoundRect*
0 Rectangle with rounded corners*
0 $1 Rounding radius*
0 $2 $3 $4 $5 $6 $7 $8 $9 X,Y pos of 4 corners*
0 Add a 4 corners polygon primitive as box body*
4,1,4,$2,$3,$4,$5,$6,$7,$8,$9,$2,$3,0*
0 Add four circle primitives for the rounded corners*
1,1,$1+$1,$2,$3*
1,1,$1+$1,$4,$5*
1,1,$1+$1,$6,$7*
1,1,$1+$1,$8,$9*
0 Add four rect primitives between the rounded corners*
20,1,$1+$1,$2,$3,$4,$5,0*
20,1,$1+$1,$4,$5,$6,$7,0*
20,1,$1+$1,$6,$7,$8,$9,0*
20,1,$1+$1,$8,$9,$2,$3,0*%
G04 Aperture macros list end*
%ADD10C,0.100000*%
%ADD11C,0.150000*%
%ADD12C,0.000000*%
%ADD13C,0.381000*%
%ADD14C,1.752600*%
%ADD15R,1.752600X1.752600*%
%ADD16C,1.800000*%
%ADD17RoundRect,0.250000X-0.650000X-0.650000X0.650000X-0.650000X0.650000X0.650000X-0.650000X0.650000X0*%
%ADD18C,3.250000*%
%ADD19C,1.700000*%
%ADD20C,2.000000*%
%ADD21C,3.200000*%
G04 APERTURE END LIST*
D10*
X146455665Y-89537217D02*
X146455665Y-89203884D01*
X146979475Y-89203884D02*
X145979475Y-89203884D01*
X145979475Y-89203884D02*
X145979475Y-89680074D01*
X146979475Y-90537217D02*
X146979475Y-90061027D01*
X146979475Y-90061027D02*
X145979475Y-90061027D01*
X146979475Y-90870551D02*
X145979475Y-90870551D01*
X146979475Y-91346741D02*
X145979475Y-91346741D01*
X145979475Y-91346741D02*
X145979475Y-91727693D01*
X145979475Y-91727693D02*
X146027094Y-91822931D01*
X146027094Y-91822931D02*
X146074713Y-91870550D01*
X146074713Y-91870550D02*
X146169951Y-91918169D01*
X146169951Y-91918169D02*
X146312808Y-91918169D01*
X146312808Y-91918169D02*
X146408046Y-91870550D01*
X146408046Y-91870550D02*
X146455665Y-91822931D01*
X146455665Y-91822931D02*
X146503284Y-91727693D01*
X146503284Y-91727693D02*
X146503284Y-91346741D01*
X145979475Y-92965789D02*
X145979475Y-93537217D01*
X146979475Y-93251503D02*
X145979475Y-93251503D01*
X146979475Y-93870551D02*
X145979475Y-93870551D01*
X146455665Y-93870551D02*
X146455665Y-94441979D01*
X146979475Y-94441979D02*
X145979475Y-94441979D01*
X146455665Y-94918170D02*
X146455665Y-95251503D01*
X146979475Y-95394360D02*
X146979475Y-94918170D01*
X146979475Y-94918170D02*
X145979475Y-94918170D01*
X145979475Y-94918170D02*
X145979475Y-95394360D01*
X146979475Y-96584837D02*
X145979475Y-96584837D01*
X145979475Y-96584837D02*
X145979475Y-96965789D01*
X145979475Y-96965789D02*
X146027094Y-97061027D01*
X146027094Y-97061027D02*
X146074713Y-97108646D01*
X146074713Y-97108646D02*
X146169951Y-97156265D01*
X146169951Y-97156265D02*
X146312808Y-97156265D01*
X146312808Y-97156265D02*
X146408046Y-97108646D01*
X146408046Y-97108646D02*
X146455665Y-97061027D01*
X146455665Y-97061027D02*
X146503284Y-96965789D01*
X146503284Y-96965789D02*
X146503284Y-96584837D01*
X146979475Y-98156265D02*
X146503284Y-97822932D01*
X146979475Y-97584837D02*
X145979475Y-97584837D01*
X145979475Y-97584837D02*
X145979475Y-97965789D01*
X145979475Y-97965789D02*
X146027094Y-98061027D01*
X146027094Y-98061027D02*
X146074713Y-98108646D01*
X146074713Y-98108646D02*
X146169951Y-98156265D01*
X146169951Y-98156265D02*
X146312808Y-98156265D01*
X146312808Y-98156265D02*
X146408046Y-98108646D01*
X146408046Y-98108646D02*
X146455665Y-98061027D01*
X146455665Y-98061027D02*
X146503284Y-97965789D01*
X146503284Y-97965789D02*
X146503284Y-97584837D01*
X145979475Y-98775313D02*
X145979475Y-98965789D01*
X145979475Y-98965789D02*
X146027094Y-99061027D01*
X146027094Y-99061027D02*
X146122332Y-99156265D01*
X146122332Y-99156265D02*
X146312808Y-99203884D01*
X146312808Y-99203884D02*
X146646141Y-99203884D01*
X146646141Y-99203884D02*
X146836617Y-99156265D01*
X146836617Y-99156265D02*
X146931856Y-99061027D01*
X146931856Y-99061027D02*
X146979475Y-98965789D01*
X146979475Y-98965789D02*
X146979475Y-98775313D01*
X146979475Y-98775313D02*
X146931856Y-98680075D01*
X146931856Y-98680075D02*
X146836617Y-98584837D01*
X146836617Y-98584837D02*
X146646141Y-98537218D01*
X146646141Y-98537218D02*
X146312808Y-98537218D01*
X146312808Y-98537218D02*
X146122332Y-98584837D01*
X146122332Y-98584837D02*
X146027094Y-98680075D01*
X146027094Y-98680075D02*
X145979475Y-98775313D01*
X146979475Y-100394361D02*
X145979475Y-100394361D01*
X145979475Y-100394361D02*
X146693760Y-100727694D01*
X146693760Y-100727694D02*
X145979475Y-101061027D01*
X145979475Y-101061027D02*
X146979475Y-101061027D01*
X146979475Y-101537218D02*
X145979475Y-101537218D01*
X146884236Y-102584836D02*
X146931856Y-102537217D01*
X146931856Y-102537217D02*
X146979475Y-102394360D01*
X146979475Y-102394360D02*
X146979475Y-102299122D01*
X146979475Y-102299122D02*
X146931856Y-102156265D01*
X146931856Y-102156265D02*
X146836617Y-102061027D01*
X146836617Y-102061027D02*
X146741379Y-102013408D01*
X146741379Y-102013408D02*
X146550903Y-101965789D01*
X146550903Y-101965789D02*
X146408046Y-101965789D01*
X146408046Y-101965789D02*
X146217570Y-102013408D01*
X146217570Y-102013408D02*
X146122332Y-102061027D01*
X146122332Y-102061027D02*
X146027094Y-102156265D01*
X146027094Y-102156265D02*
X145979475Y-102299122D01*
X145979475Y-102299122D02*
X145979475Y-102394360D01*
X145979475Y-102394360D02*
X146027094Y-102537217D01*
X146027094Y-102537217D02*
X146074713Y-102584836D01*
X146979475Y-103584836D02*
X146503284Y-103251503D01*
X146979475Y-103013408D02*
X145979475Y-103013408D01*
X145979475Y-103013408D02*
X145979475Y-103394360D01*
X145979475Y-103394360D02*
X146027094Y-103489598D01*
X146027094Y-103489598D02*
X146074713Y-103537217D01*
X146074713Y-103537217D02*
X146169951Y-103584836D01*
X146169951Y-103584836D02*
X146312808Y-103584836D01*
X146312808Y-103584836D02*
X146408046Y-103537217D01*
X146408046Y-103537217D02*
X146455665Y-103489598D01*
X146455665Y-103489598D02*
X146503284Y-103394360D01*
X146503284Y-103394360D02*
X146503284Y-103013408D01*
X145979475Y-104203884D02*
X145979475Y-104394360D01*
X145979475Y-104394360D02*
X146027094Y-104489598D01*
X146027094Y-104489598D02*
X146122332Y-104584836D01*
X146122332Y-104584836D02*
X146312808Y-104632455D01*
X146312808Y-104632455D02*
X146646141Y-104632455D01*
X146646141Y-104632455D02*
X146836617Y-104584836D01*
X146836617Y-104584836D02*
X146931856Y-104489598D01*
X146931856Y-104489598D02*
X146979475Y-104394360D01*
X146979475Y-104394360D02*
X146979475Y-104203884D01*
X146979475Y-104203884D02*
X146931856Y-104108646D01*
X146931856Y-104108646D02*
X146836617Y-104013408D01*
X146836617Y-104013408D02*
X146646141Y-103965789D01*
X146646141Y-103965789D02*
X146312808Y-103965789D01*
X146312808Y-103965789D02*
X146122332Y-104013408D01*
X146122332Y-104013408D02*
X146027094Y-104108646D01*
X146027094Y-104108646D02*
X145979475Y-104203884D01*
X146931856Y-105775313D02*
X146979475Y-105918170D01*
X146979475Y-105918170D02*
X146979475Y-106156265D01*
X146979475Y-106156265D02*
X146931856Y-106251503D01*
X146931856Y-106251503D02*
X146884236Y-106299122D01*
X146884236Y-106299122D02*
X146788998Y-106346741D01*
X146788998Y-106346741D02*
X146693760Y-106346741D01*
X146693760Y-106346741D02*
X146598522Y-106299122D01*
X146598522Y-106299122D02*
X146550903Y-106251503D01*
X146550903Y-106251503D02*
X146503284Y-106156265D01*
X146503284Y-106156265D02*
X146455665Y-105965789D01*
X146455665Y-105965789D02*
X146408046Y-105870551D01*
X146408046Y-105870551D02*
X146360427Y-105822932D01*
X146360427Y-105822932D02*
X146265189Y-105775313D01*
X146265189Y-105775313D02*
X146169951Y-105775313D01*
X146169951Y-105775313D02*
X146074713Y-105822932D01*
X146074713Y-105822932D02*
X146027094Y-105870551D01*
X146027094Y-105870551D02*
X145979475Y-105965789D01*
X145979475Y-105965789D02*
X145979475Y-106203884D01*
X145979475Y-106203884D02*
X146027094Y-106346741D01*
X145979475Y-106965789D02*
X145979475Y-107156265D01*
X145979475Y-107156265D02*
X146027094Y-107251503D01*
X146027094Y-107251503D02*
X146122332Y-107346741D01*
X146122332Y-107346741D02*
X146312808Y-107394360D01*
X146312808Y-107394360D02*
X146646141Y-107394360D01*
X146646141Y-107394360D02*
X146836617Y-107346741D01*
X146836617Y-107346741D02*
X146931856Y-107251503D01*
X146931856Y-107251503D02*
X146979475Y-107156265D01*
X146979475Y-107156265D02*
X146979475Y-106965789D01*
X146979475Y-106965789D02*
X146931856Y-106870551D01*
X146931856Y-106870551D02*
X146836617Y-106775313D01*
X146836617Y-106775313D02*
X146646141Y-106727694D01*
X146646141Y-106727694D02*
X146312808Y-106727694D01*
X146312808Y-106727694D02*
X146122332Y-106775313D01*
X146122332Y-106775313D02*
X146027094Y-106870551D01*
X146027094Y-106870551D02*
X145979475Y-106965789D01*
X145979475Y-108441980D02*
X145979475Y-109013408D01*
X146979475Y-108727694D02*
X145979475Y-108727694D01*
X146979475Y-109346742D02*
X145979475Y-109346742D01*
X146455665Y-109346742D02*
X146455665Y-109918170D01*
X146979475Y-109918170D02*
X145979475Y-109918170D01*
X146693760Y-110346742D02*
X146693760Y-110822932D01*
X146979475Y-110251504D02*
X145979475Y-110584837D01*
X145979475Y-110584837D02*
X146979475Y-110918170D01*
X145979475Y-111108647D02*
X145979475Y-111680075D01*
X146979475Y-111394361D02*
X145979475Y-111394361D01*
X147589419Y-89061027D02*
X147589419Y-89632455D01*
X148589419Y-89346741D02*
X147589419Y-89346741D01*
X148589419Y-89965789D02*
X147589419Y-89965789D01*
X148065609Y-89965789D02*
X148065609Y-90537217D01*
X148589419Y-90537217D02*
X147589419Y-90537217D01*
X148065609Y-91013408D02*
X148065609Y-91346741D01*
X148589419Y-91489598D02*
X148589419Y-91013408D01*
X148589419Y-91013408D02*
X147589419Y-91013408D01*
X147589419Y-91013408D02*
X147589419Y-91489598D01*
X147589419Y-92680075D02*
X148398942Y-92680075D01*
X148398942Y-92680075D02*
X148494180Y-92727694D01*
X148494180Y-92727694D02*
X148541800Y-92775313D01*
X148541800Y-92775313D02*
X148589419Y-92870551D01*
X148589419Y-92870551D02*
X148589419Y-93061027D01*
X148589419Y-93061027D02*
X148541800Y-93156265D01*
X148541800Y-93156265D02*
X148494180Y-93203884D01*
X148494180Y-93203884D02*
X148398942Y-93251503D01*
X148398942Y-93251503D02*
X147589419Y-93251503D01*
X148541800Y-93680075D02*
X148589419Y-93822932D01*
X148589419Y-93822932D02*
X148589419Y-94061027D01*
X148589419Y-94061027D02*
X148541800Y-94156265D01*
X148541800Y-94156265D02*
X148494180Y-94203884D01*
X148494180Y-94203884D02*
X148398942Y-94251503D01*
X148398942Y-94251503D02*
X148303704Y-94251503D01*
X148303704Y-94251503D02*
X148208466Y-94203884D01*
X148208466Y-94203884D02*
X148160847Y-94156265D01*
X148160847Y-94156265D02*
X148113228Y-94061027D01*
X148113228Y-94061027D02*
X148065609Y-93870551D01*
X148065609Y-93870551D02*
X148017990Y-93775313D01*
X148017990Y-93775313D02*
X147970371Y-93727694D01*
X147970371Y-93727694D02*
X147875133Y-93680075D01*
X147875133Y-93680075D02*
X147779895Y-93680075D01*
X147779895Y-93680075D02*
X147684657Y-93727694D01*
X147684657Y-93727694D02*
X147637038Y-93775313D01*
X147637038Y-93775313D02*
X147589419Y-93870551D01*
X147589419Y-93870551D02*
X147589419Y-94108646D01*
X147589419Y-94108646D02*
X147637038Y-94251503D01*
X148065609Y-95013408D02*
X148113228Y-95156265D01*
X148113228Y-95156265D02*
X148160847Y-95203884D01*
X148160847Y-95203884D02*
X148256085Y-95251503D01*
X148256085Y-95251503D02*
X148398942Y-95251503D01*
X148398942Y-95251503D02*
X148494180Y-95203884D01*
X148494180Y-95203884D02*
X148541800Y-95156265D01*
X148541800Y-95156265D02*
X148589419Y-95061027D01*
X148589419Y-95061027D02*
X148589419Y-94680075D01*
X148589419Y-94680075D02*
X147589419Y-94680075D01*
X147589419Y-94680075D02*
X147589419Y-95013408D01*
X147589419Y-95013408D02*
X147637038Y-95108646D01*
X147637038Y-95108646D02*
X147684657Y-95156265D01*
X147684657Y-95156265D02*
X147779895Y-95203884D01*
X147779895Y-95203884D02*
X147875133Y-95203884D01*
X147875133Y-95203884D02*
X147970371Y-95156265D01*
X147970371Y-95156265D02*
X148017990Y-95108646D01*
X148017990Y-95108646D02*
X148065609Y-95013408D01*
X148065609Y-95013408D02*
X148065609Y-94680075D01*
X148589419Y-96441980D02*
X147589419Y-96441980D01*
X148541800Y-96870551D02*
X148589419Y-97013408D01*
X148589419Y-97013408D02*
X148589419Y-97251503D01*
X148589419Y-97251503D02*
X148541800Y-97346741D01*
X148541800Y-97346741D02*
X148494180Y-97394360D01*
X148494180Y-97394360D02*
X148398942Y-97441979D01*
X148398942Y-97441979D02*
X148303704Y-97441979D01*
X148303704Y-97441979D02*
X148208466Y-97394360D01*
X148208466Y-97394360D02*
X148160847Y-97346741D01*
X148160847Y-97346741D02*
X148113228Y-97251503D01*
X148113228Y-97251503D02*
X148065609Y-97061027D01*
X148065609Y-97061027D02*
X148017990Y-96965789D01*
X148017990Y-96965789D02*
X147970371Y-96918170D01*
X147970371Y-96918170D02*
X147875133Y-96870551D01*
X147875133Y-96870551D02*
X147779895Y-96870551D01*
X147779895Y-96870551D02*
X147684657Y-96918170D01*
X147684657Y-96918170D02*
X147637038Y-96965789D01*
X147637038Y-96965789D02*
X147589419Y-97061027D01*
X147589419Y-97061027D02*
X147589419Y-97299122D01*
X147589419Y-97299122D02*
X147637038Y-97441979D01*
X148065609Y-98965789D02*
X148065609Y-98632456D01*
X148589419Y-98632456D02*
X147589419Y-98632456D01*
X147589419Y-98632456D02*
X147589419Y-99108646D01*
X148303704Y-99441980D02*
X148303704Y-99918170D01*
X148589419Y-99346742D02*
X147589419Y-99680075D01*
X147589419Y-99680075D02*
X148589419Y-100013408D01*
X148494180Y-100918170D02*
X148541800Y-100870551D01*
X148541800Y-100870551D02*
X148589419Y-100727694D01*
X148589419Y-100727694D02*
X148589419Y-100632456D01*
X148589419Y-100632456D02*
X148541800Y-100489599D01*
X148541800Y-100489599D02*
X148446561Y-100394361D01*
X148446561Y-100394361D02*
X148351323Y-100346742D01*
X148351323Y-100346742D02*
X148160847Y-100299123D01*
X148160847Y-100299123D02*
X148017990Y-100299123D01*
X148017990Y-100299123D02*
X147827514Y-100346742D01*
X147827514Y-100346742D02*
X147732276Y-100394361D01*
X147732276Y-100394361D02*
X147637038Y-100489599D01*
X147637038Y-100489599D02*
X147589419Y-100632456D01*
X147589419Y-100632456D02*
X147589419Y-100727694D01*
X147589419Y-100727694D02*
X147637038Y-100870551D01*
X147637038Y-100870551D02*
X147684657Y-100918170D01*
X148589419Y-101346742D02*
X147589419Y-101346742D01*
X148589419Y-101822932D02*
X147589419Y-101822932D01*
X147589419Y-101822932D02*
X148589419Y-102394360D01*
X148589419Y-102394360D02*
X147589419Y-102394360D01*
X147637038Y-103394360D02*
X147589419Y-103299122D01*
X147589419Y-103299122D02*
X147589419Y-103156265D01*
X147589419Y-103156265D02*
X147637038Y-103013408D01*
X147637038Y-103013408D02*
X147732276Y-102918170D01*
X147732276Y-102918170D02*
X147827514Y-102870551D01*
X147827514Y-102870551D02*
X148017990Y-102822932D01*
X148017990Y-102822932D02*
X148160847Y-102822932D01*
X148160847Y-102822932D02*
X148351323Y-102870551D01*
X148351323Y-102870551D02*
X148446561Y-102918170D01*
X148446561Y-102918170D02*
X148541800Y-103013408D01*
X148541800Y-103013408D02*
X148589419Y-103156265D01*
X148589419Y-103156265D02*
X148589419Y-103251503D01*
X148589419Y-103251503D02*
X148541800Y-103394360D01*
X148541800Y-103394360D02*
X148494180Y-103441979D01*
X148494180Y-103441979D02*
X148160847Y-103441979D01*
X148160847Y-103441979D02*
X148160847Y-103251503D01*
X147589419Y-104489599D02*
X147589419Y-105061027D01*
X148589419Y-104775313D02*
X147589419Y-104775313D01*
X148589419Y-105394361D02*
X147589419Y-105394361D01*
X148065609Y-105394361D02*
X148065609Y-105965789D01*
X148589419Y-105965789D02*
X147589419Y-105965789D01*
X148065609Y-106441980D02*
X148065609Y-106775313D01*
X148589419Y-106918170D02*
X148589419Y-106441980D01*
X148589419Y-106441980D02*
X147589419Y-106441980D01*
X147589419Y-106441980D02*
X147589419Y-106918170D01*
X148589419Y-108108647D02*
X147589419Y-108108647D01*
X147589419Y-108108647D02*
X147589419Y-108489599D01*
X147589419Y-108489599D02*
X147637038Y-108584837D01*
X147637038Y-108584837D02*
X147684657Y-108632456D01*
X147684657Y-108632456D02*
X147779895Y-108680075D01*
X147779895Y-108680075D02*
X147922752Y-108680075D01*
X147922752Y-108680075D02*
X148017990Y-108632456D01*
X148017990Y-108632456D02*
X148065609Y-108584837D01*
X148065609Y-108584837D02*
X148113228Y-108489599D01*
X148113228Y-108489599D02*
X148113228Y-108108647D01*
X148494180Y-109680075D02*
X148541800Y-109632456D01*
X148541800Y-109632456D02*
X148589419Y-109489599D01*
X148589419Y-109489599D02*
X148589419Y-109394361D01*
X148589419Y-109394361D02*
X148541800Y-109251504D01*
X148541800Y-109251504D02*
X148446561Y-109156266D01*
X148446561Y-109156266D02*
X148351323Y-109108647D01*
X148351323Y-109108647D02*
X148160847Y-109061028D01*
X148160847Y-109061028D02*
X148017990Y-109061028D01*
X148017990Y-109061028D02*
X147827514Y-109108647D01*
X147827514Y-109108647D02*
X147732276Y-109156266D01*
X147732276Y-109156266D02*
X147637038Y-109251504D01*
X147637038Y-109251504D02*
X147589419Y-109394361D01*
X147589419Y-109394361D02*
X147589419Y-109489599D01*
X147589419Y-109489599D02*
X147637038Y-109632456D01*
X147637038Y-109632456D02*
X147684657Y-109680075D01*
X148065609Y-110441980D02*
X148113228Y-110584837D01*
X148113228Y-110584837D02*
X148160847Y-110632456D01*
X148160847Y-110632456D02*
X148256085Y-110680075D01*
X148256085Y-110680075D02*
X148398942Y-110680075D01*
X148398942Y-110680075D02*
X148494180Y-110632456D01*
X148494180Y-110632456D02*
X148541800Y-110584837D01*
X148541800Y-110584837D02*
X148589419Y-110489599D01*
X148589419Y-110489599D02*
X148589419Y-110108647D01*
X148589419Y-110108647D02*
X147589419Y-110108647D01*
X147589419Y-110108647D02*
X147589419Y-110441980D01*
X147589419Y-110441980D02*
X147637038Y-110537218D01*
X147637038Y-110537218D02*
X147684657Y-110584837D01*
X147684657Y-110584837D02*
X147779895Y-110632456D01*
X147779895Y-110632456D02*
X147875133Y-110632456D01*
X147875133Y-110632456D02*
X147970371Y-110584837D01*
X147970371Y-110584837D02*
X148017990Y-110537218D01*
X148017990Y-110537218D02*
X148065609Y-110441980D01*
X148065609Y-110441980D02*
X148065609Y-110108647D01*
X170687419Y-106666312D02*
X170211228Y-106332979D01*
X170687419Y-106094884D02*
X169687419Y-106094884D01*
X169687419Y-106094884D02*
X169687419Y-106475836D01*
X169687419Y-106475836D02*
X169735038Y-106571074D01*
X169735038Y-106571074D02*
X169782657Y-106618693D01*
X169782657Y-106618693D02*
X169877895Y-106666312D01*
X169877895Y-106666312D02*
X170020752Y-106666312D01*
X170020752Y-106666312D02*
X170115990Y-106618693D01*
X170115990Y-106618693D02*
X170163609Y-106571074D01*
X170163609Y-106571074D02*
X170211228Y-106475836D01*
X170211228Y-106475836D02*
X170211228Y-106094884D01*
X170163609Y-107094884D02*
X170163609Y-107428217D01*
X170687419Y-107571074D02*
X170687419Y-107094884D01*
X170687419Y-107094884D02*
X169687419Y-107094884D01*
X169687419Y-107094884D02*
X169687419Y-107571074D01*
X169687419Y-107856789D02*
X170687419Y-108190122D01*
X170687419Y-108190122D02*
X169687419Y-108523455D01*
X170687419Y-110142503D02*
X170687419Y-109571075D01*
X170687419Y-109856789D02*
X169687419Y-109856789D01*
X169687419Y-109856789D02*
X169830276Y-109761551D01*
X169830276Y-109761551D02*
X169925514Y-109666313D01*
X169925514Y-109666313D02*
X169973133Y-109571075D01*
X170592180Y-110571075D02*
X170639800Y-110618694D01*
X170639800Y-110618694D02*
X170687419Y-110571075D01*
X170687419Y-110571075D02*
X170639800Y-110523456D01*
X170639800Y-110523456D02*
X170592180Y-110571075D01*
X170592180Y-110571075D02*
X170687419Y-110571075D01*
X169687419Y-111237741D02*
X169687419Y-111332979D01*
X169687419Y-111332979D02*
X169735038Y-111428217D01*
X169735038Y-111428217D02*
X169782657Y-111475836D01*
X169782657Y-111475836D02*
X169877895Y-111523455D01*
X169877895Y-111523455D02*
X170068371Y-111571074D01*
X170068371Y-111571074D02*
X170306466Y-111571074D01*
X170306466Y-111571074D02*
X170496942Y-111523455D01*
X170496942Y-111523455D02*
X170592180Y-111475836D01*
X170592180Y-111475836D02*
X170639800Y-111428217D01*
X170639800Y-111428217D02*
X170687419Y-111332979D01*
X170687419Y-111332979D02*
X170687419Y-111237741D01*
X170687419Y-111237741D02*
X170639800Y-111142503D01*
X170639800Y-111142503D02*
X170592180Y-111094884D01*
X170592180Y-111094884D02*
X170496942Y-111047265D01*
X170496942Y-111047265D02*
X170306466Y-110999646D01*
X170306466Y-110999646D02*
X170068371Y-110999646D01*
X170068371Y-110999646D02*
X169877895Y-111047265D01*
X169877895Y-111047265D02*
X169782657Y-111094884D01*
X169782657Y-111094884D02*
X169735038Y-111142503D01*
X169735038Y-111142503D02*
X169687419Y-111237741D01*
X162129115Y-84851419D02*
X162129115Y-85660942D01*
X162129115Y-85660942D02*
X162081496Y-85756180D01*
X162081496Y-85756180D02*
X162033877Y-85803800D01*
X162033877Y-85803800D02*
X161938639Y-85851419D01*
X161938639Y-85851419D02*
X161748163Y-85851419D01*
X161748163Y-85851419D02*
X161652925Y-85803800D01*
X161652925Y-85803800D02*
X161605306Y-85756180D01*
X161605306Y-85756180D02*
X161557687Y-85660942D01*
X161557687Y-85660942D02*
X161557687Y-84851419D01*
X161129115Y-85803800D02*
X160986258Y-85851419D01*
X160986258Y-85851419D02*
X160748163Y-85851419D01*
X160748163Y-85851419D02*
X160652925Y-85803800D01*
X160652925Y-85803800D02*
X160605306Y-85756180D01*
X160605306Y-85756180D02*
X160557687Y-85660942D01*
X160557687Y-85660942D02*
X160557687Y-85565704D01*
X160557687Y-85565704D02*
X160605306Y-85470466D01*
X160605306Y-85470466D02*
X160652925Y-85422847D01*
X160652925Y-85422847D02*
X160748163Y-85375228D01*
X160748163Y-85375228D02*
X160938639Y-85327609D01*
X160938639Y-85327609D02*
X161033877Y-85279990D01*
X161033877Y-85279990D02*
X161081496Y-85232371D01*
X161081496Y-85232371D02*
X161129115Y-85137133D01*
X161129115Y-85137133D02*
X161129115Y-85041895D01*
X161129115Y-85041895D02*
X161081496Y-84946657D01*
X161081496Y-84946657D02*
X161033877Y-84899038D01*
X161033877Y-84899038D02*
X160938639Y-84851419D01*
X160938639Y-84851419D02*
X160700544Y-84851419D01*
X160700544Y-84851419D02*
X160557687Y-84899038D01*
X159795782Y-85327609D02*
X159652925Y-85375228D01*
X159652925Y-85375228D02*
X159605306Y-85422847D01*
X159605306Y-85422847D02*
X159557687Y-85518085D01*
X159557687Y-85518085D02*
X159557687Y-85660942D01*
X159557687Y-85660942D02*
X159605306Y-85756180D01*
X159605306Y-85756180D02*
X159652925Y-85803800D01*
X159652925Y-85803800D02*
X159748163Y-85851419D01*
X159748163Y-85851419D02*
X160129115Y-85851419D01*
X160129115Y-85851419D02*
X160129115Y-84851419D01*
X160129115Y-84851419D02*
X159795782Y-84851419D01*
X159795782Y-84851419D02*
X159700544Y-84899038D01*
X159700544Y-84899038D02*
X159652925Y-84946657D01*
X159652925Y-84946657D02*
X159605306Y-85041895D01*
X159605306Y-85041895D02*
X159605306Y-85137133D01*
X159605306Y-85137133D02*
X159652925Y-85232371D01*
X159652925Y-85232371D02*
X159700544Y-85279990D01*
X159700544Y-85279990D02*
X159795782Y-85327609D01*
X159795782Y-85327609D02*
X160129115Y-85327609D01*
X158367210Y-85851419D02*
X158367210Y-84851419D01*
X158367210Y-85327609D02*
X157795782Y-85327609D01*
X157795782Y-85851419D02*
X157795782Y-84851419D01*
X157319591Y-85327609D02*
X156986258Y-85327609D01*
X156843401Y-85851419D02*
X157319591Y-85851419D01*
X157319591Y-85851419D02*
X157319591Y-84851419D01*
X157319591Y-84851419D02*
X156843401Y-84851419D01*
X155843401Y-85851419D02*
X156176734Y-85375228D01*
X156414829Y-85851419D02*
X156414829Y-84851419D01*
X156414829Y-84851419D02*
X156033877Y-84851419D01*
X156033877Y-84851419D02*
X155938639Y-84899038D01*
X155938639Y-84899038D02*
X155891020Y-84946657D01*
X155891020Y-84946657D02*
X155843401Y-85041895D01*
X155843401Y-85041895D02*
X155843401Y-85184752D01*
X155843401Y-85184752D02*
X155891020Y-85279990D01*
X155891020Y-85279990D02*
X155938639Y-85327609D01*
X155938639Y-85327609D02*
X156033877Y-85375228D01*
X156033877Y-85375228D02*
X156414829Y-85375228D01*
X155414829Y-85327609D02*
X155081496Y-85327609D01*
X154938639Y-85851419D02*
X155414829Y-85851419D01*
X155414829Y-85851419D02*
X155414829Y-84851419D01*
X155414829Y-84851419D02*
X154938639Y-84851419D01*
X156845000Y-111061500D02*
X156845000Y-113284000D01*
X160147000Y-114173000D02*
X160020000Y-114300000D01*
X161417000Y-114427000D02*
X161671000Y-114427000D01*
X157480000Y-114300000D02*
X157607000Y-114173000D01*
X155956000Y-110172500D02*
X156845000Y-111061500D01*
X160020000Y-110236000D02*
X160020000Y-114300000D01*
X157480000Y-110236000D02*
X157480000Y-114300000D01*
X156845000Y-111061500D02*
X156845000Y-113411000D01*
X156083000Y-114427000D02*
X155829000Y-114427000D01*
X156845000Y-113411000D02*
X155829000Y-114427000D01*
X155829000Y-114173000D02*
X155829000Y-114427000D01*
X155956000Y-110172500D02*
X156845000Y-111061500D01*
X161544000Y-110172500D02*
X160655000Y-111061500D01*
X157480000Y-114300000D02*
X157353000Y-114173000D01*
X160655000Y-113411000D02*
X161671000Y-114427000D01*
X161671000Y-114173000D02*
X161671000Y-114427000D01*
X159893000Y-114173000D02*
X160020000Y-114300000D01*
X160655000Y-111061500D02*
X160655000Y-113411000D01*
X157479466Y-107106687D02*
X157479466Y-107868592D01*
X157860419Y-107487639D02*
X157098514Y-107487639D01*
X156860419Y-108820972D02*
X156860419Y-108344782D01*
X156860419Y-108344782D02*
X157336609Y-108297163D01*
X157336609Y-108297163D02*
X157288990Y-108344782D01*
X157288990Y-108344782D02*
X157241371Y-108440020D01*
X157241371Y-108440020D02*
X157241371Y-108678115D01*
X157241371Y-108678115D02*
X157288990Y-108773353D01*
X157288990Y-108773353D02*
X157336609Y-108820972D01*
X157336609Y-108820972D02*
X157431847Y-108868591D01*
X157431847Y-108868591D02*
X157669942Y-108868591D01*
X157669942Y-108868591D02*
X157765180Y-108820972D01*
X157765180Y-108820972D02*
X157812800Y-108773353D01*
X157812800Y-108773353D02*
X157860419Y-108678115D01*
X157860419Y-108678115D02*
X157860419Y-108440020D01*
X157860419Y-108440020D02*
X157812800Y-108344782D01*
X157812800Y-108344782D02*
X157765180Y-108297163D01*
X156860419Y-109154306D02*
X157860419Y-109487639D01*
X157860419Y-109487639D02*
X156860419Y-109820972D01*
X160432180Y-107865410D02*
X160479800Y-107817791D01*
X160479800Y-107817791D02*
X160527419Y-107674934D01*
X160527419Y-107674934D02*
X160527419Y-107579696D01*
X160527419Y-107579696D02*
X160479800Y-107436839D01*
X160479800Y-107436839D02*
X160384561Y-107341601D01*
X160384561Y-107341601D02*
X160289323Y-107293982D01*
X160289323Y-107293982D02*
X160098847Y-107246363D01*
X160098847Y-107246363D02*
X159955990Y-107246363D01*
X159955990Y-107246363D02*
X159765514Y-107293982D01*
X159765514Y-107293982D02*
X159670276Y-107341601D01*
X159670276Y-107341601D02*
X159575038Y-107436839D01*
X159575038Y-107436839D02*
X159527419Y-107579696D01*
X159527419Y-107579696D02*
X159527419Y-107674934D01*
X159527419Y-107674934D02*
X159575038Y-107817791D01*
X159575038Y-107817791D02*
X159622657Y-107865410D01*
X160527419Y-108770172D02*
X160527419Y-108293982D01*
X160527419Y-108293982D02*
X159527419Y-108293982D01*
X160527419Y-109103506D02*
X159527419Y-109103506D01*
X160527419Y-109674934D02*
X159955990Y-109246363D01*
X159527419Y-109674934D02*
X160098847Y-109103506D01*
X162140438Y-107605096D02*
X162092819Y-107509858D01*
X162092819Y-107509858D02*
X162092819Y-107367001D01*
X162092819Y-107367001D02*
X162140438Y-107224144D01*
X162140438Y-107224144D02*
X162235676Y-107128906D01*
X162235676Y-107128906D02*
X162330914Y-107081287D01*
X162330914Y-107081287D02*
X162521390Y-107033668D01*
X162521390Y-107033668D02*
X162664247Y-107033668D01*
X162664247Y-107033668D02*
X162854723Y-107081287D01*
X162854723Y-107081287D02*
X162949961Y-107128906D01*
X162949961Y-107128906D02*
X163045200Y-107224144D01*
X163045200Y-107224144D02*
X163092819Y-107367001D01*
X163092819Y-107367001D02*
X163092819Y-107462239D01*
X163092819Y-107462239D02*
X163045200Y-107605096D01*
X163045200Y-107605096D02*
X162997580Y-107652715D01*
X162997580Y-107652715D02*
X162664247Y-107652715D01*
X162664247Y-107652715D02*
X162664247Y-107462239D01*
X163092819Y-108081287D02*
X162092819Y-108081287D01*
X162092819Y-108081287D02*
X163092819Y-108652715D01*
X163092819Y-108652715D02*
X162092819Y-108652715D01*
X163092819Y-109128906D02*
X162092819Y-109128906D01*
X162092819Y-109128906D02*
X162092819Y-109367001D01*
X162092819Y-109367001D02*
X162140438Y-109509858D01*
X162140438Y-109509858D02*
X162235676Y-109605096D01*
X162235676Y-109605096D02*
X162330914Y-109652715D01*
X162330914Y-109652715D02*
X162521390Y-109700334D01*
X162521390Y-109700334D02*
X162664247Y-109700334D01*
X162664247Y-109700334D02*
X162854723Y-109652715D01*
X162854723Y-109652715D02*
X162949961Y-109605096D01*
X162949961Y-109605096D02*
X163045200Y-109509858D01*
X163045200Y-109509858D02*
X163092819Y-109367001D01*
X163092819Y-109367001D02*
X163092819Y-109128906D01*
X155447419Y-106678115D02*
X154447419Y-106678115D01*
X154447419Y-106678115D02*
X154447419Y-106916210D01*
X154447419Y-106916210D02*
X154495038Y-107059067D01*
X154495038Y-107059067D02*
X154590276Y-107154305D01*
X154590276Y-107154305D02*
X154685514Y-107201924D01*
X154685514Y-107201924D02*
X154875990Y-107249543D01*
X154875990Y-107249543D02*
X155018847Y-107249543D01*
X155018847Y-107249543D02*
X155209323Y-107201924D01*
X155209323Y-107201924D02*
X155304561Y-107154305D01*
X155304561Y-107154305D02*
X155399800Y-107059067D01*
X155399800Y-107059067D02*
X155447419Y-106916210D01*
X155447419Y-106916210D02*
X155447419Y-106678115D01*
X155161704Y-107630496D02*
X155161704Y-108106686D01*
X155447419Y-107535258D02*
X154447419Y-107868591D01*
X154447419Y-107868591D02*
X155447419Y-108201924D01*
X154447419Y-108392401D02*
X154447419Y-108963829D01*
X155447419Y-108678115D02*
X154447419Y-108678115D01*
X155161704Y-109249544D02*
X155161704Y-109725734D01*
X155447419Y-109154306D02*
X154447419Y-109487639D01*
X154447419Y-109487639D02*
X155447419Y-109820972D01*
D11*
X164297933Y-92988800D02*
X164183647Y-93026895D01*
X164183647Y-93026895D02*
X163993171Y-93026895D01*
X163993171Y-93026895D02*
X163916980Y-92988800D01*
X163916980Y-92988800D02*
X163878885Y-92950704D01*
X163878885Y-92950704D02*
X163840790Y-92874514D01*
X163840790Y-92874514D02*
X163840790Y-92798323D01*
X163840790Y-92798323D02*
X163878885Y-92722133D01*
X163878885Y-92722133D02*
X163916980Y-92684038D01*
X163916980Y-92684038D02*
X163993171Y-92645942D01*
X163993171Y-92645942D02*
X164145552Y-92607847D01*
X164145552Y-92607847D02*
X164221742Y-92569752D01*
X164221742Y-92569752D02*
X164259837Y-92531657D01*
X164259837Y-92531657D02*
X164297933Y-92455466D01*
X164297933Y-92455466D02*
X164297933Y-92379276D01*
X164297933Y-92379276D02*
X164259837Y-92303085D01*
X164259837Y-92303085D02*
X164221742Y-92264990D01*
X164221742Y-92264990D02*
X164145552Y-92226895D01*
X164145552Y-92226895D02*
X163955075Y-92226895D01*
X163955075Y-92226895D02*
X163840790Y-92264990D01*
X163612218Y-92226895D02*
X163155075Y-92226895D01*
X163383647Y-93026895D02*
X163383647Y-92226895D01*
X157343204Y-87166895D02*
X156886061Y-87166895D01*
X157114633Y-87966895D02*
X157114633Y-87166895D01*
X156695585Y-87166895D02*
X156162251Y-87966895D01*
X156162251Y-87166895D02*
X156695585Y-87966895D01*
X155705108Y-87166895D02*
X155628918Y-87166895D01*
X155628918Y-87166895D02*
X155552727Y-87204990D01*
X155552727Y-87204990D02*
X155514632Y-87243085D01*
X155514632Y-87243085D02*
X155476537Y-87319276D01*
X155476537Y-87319276D02*
X155438442Y-87471657D01*
X155438442Y-87471657D02*
X155438442Y-87662133D01*
X155438442Y-87662133D02*
X155476537Y-87814514D01*
X155476537Y-87814514D02*
X155514632Y-87890704D01*
X155514632Y-87890704D02*
X155552727Y-87928800D01*
X155552727Y-87928800D02*
X155628918Y-87966895D01*
X155628918Y-87966895D02*
X155705108Y-87966895D01*
X155705108Y-87966895D02*
X155781299Y-87928800D01*
X155781299Y-87928800D02*
X155819394Y-87890704D01*
X155819394Y-87890704D02*
X155857489Y-87814514D01*
X155857489Y-87814514D02*
X155895585Y-87662133D01*
X155895585Y-87662133D02*
X155895585Y-87471657D01*
X155895585Y-87471657D02*
X155857489Y-87319276D01*
X155857489Y-87319276D02*
X155819394Y-87243085D01*
X155819394Y-87243085D02*
X155781299Y-87204990D01*
X155781299Y-87204990D02*
X155705108Y-87166895D01*
X154524156Y-87128800D02*
X155209870Y-88157371D01*
X154257489Y-87966895D02*
X154257489Y-87166895D01*
X154257489Y-87166895D02*
X154067013Y-87166895D01*
X154067013Y-87166895D02*
X153952727Y-87204990D01*
X153952727Y-87204990D02*
X153876537Y-87281180D01*
X153876537Y-87281180D02*
X153838442Y-87357371D01*
X153838442Y-87357371D02*
X153800346Y-87509752D01*
X153800346Y-87509752D02*
X153800346Y-87624038D01*
X153800346Y-87624038D02*
X153838442Y-87776419D01*
X153838442Y-87776419D02*
X153876537Y-87852609D01*
X153876537Y-87852609D02*
X153952727Y-87928800D01*
X153952727Y-87928800D02*
X154067013Y-87966895D01*
X154067013Y-87966895D02*
X154257489Y-87966895D01*
X153533680Y-87166895D02*
X153038442Y-87166895D01*
X153038442Y-87166895D02*
X153305108Y-87471657D01*
X153305108Y-87471657D02*
X153190823Y-87471657D01*
X153190823Y-87471657D02*
X153114632Y-87509752D01*
X153114632Y-87509752D02*
X153076537Y-87547847D01*
X153076537Y-87547847D02*
X153038442Y-87624038D01*
X153038442Y-87624038D02*
X153038442Y-87814514D01*
X153038442Y-87814514D02*
X153076537Y-87890704D01*
X153076537Y-87890704D02*
X153114632Y-87928800D01*
X153114632Y-87928800D02*
X153190823Y-87966895D01*
X153190823Y-87966895D02*
X153419394Y-87966895D01*
X153419394Y-87966895D02*
X153495585Y-87928800D01*
X153495585Y-87928800D02*
X153533680Y-87890704D01*
X164509409Y-112947847D02*
X164395123Y-112985942D01*
X164395123Y-112985942D02*
X164357028Y-113024038D01*
X164357028Y-113024038D02*
X164318932Y-113100228D01*
X164318932Y-113100228D02*
X164318932Y-113214514D01*
X164318932Y-113214514D02*
X164357028Y-113290704D01*
X164357028Y-113290704D02*
X164395123Y-113328800D01*
X164395123Y-113328800D02*
X164471313Y-113366895D01*
X164471313Y-113366895D02*
X164776075Y-113366895D01*
X164776075Y-113366895D02*
X164776075Y-112566895D01*
X164776075Y-112566895D02*
X164509409Y-112566895D01*
X164509409Y-112566895D02*
X164433218Y-112604990D01*
X164433218Y-112604990D02*
X164395123Y-112643085D01*
X164395123Y-112643085D02*
X164357028Y-112719276D01*
X164357028Y-112719276D02*
X164357028Y-112795466D01*
X164357028Y-112795466D02*
X164395123Y-112871657D01*
X164395123Y-112871657D02*
X164433218Y-112909752D01*
X164433218Y-112909752D02*
X164509409Y-112947847D01*
X164509409Y-112947847D02*
X164776075Y-112947847D01*
X164014171Y-112643085D02*
X163976075Y-112604990D01*
X163976075Y-112604990D02*
X163899885Y-112566895D01*
X163899885Y-112566895D02*
X163709409Y-112566895D01*
X163709409Y-112566895D02*
X163633218Y-112604990D01*
X163633218Y-112604990D02*
X163595123Y-112643085D01*
X163595123Y-112643085D02*
X163557028Y-112719276D01*
X163557028Y-112719276D02*
X163557028Y-112795466D01*
X163557028Y-112795466D02*
X163595123Y-112909752D01*
X163595123Y-112909752D02*
X164052266Y-113366895D01*
X164052266Y-113366895D02*
X163557028Y-113366895D01*
X164452266Y-105327847D02*
X164718932Y-105327847D01*
X164718932Y-105746895D02*
X164718932Y-104946895D01*
X164718932Y-104946895D02*
X164337980Y-104946895D01*
X164109409Y-104946895D02*
X163576075Y-104946895D01*
X163576075Y-104946895D02*
X163918933Y-105746895D01*
X164452266Y-102787847D02*
X164718932Y-102787847D01*
X164718932Y-103206895D02*
X164718932Y-102406895D01*
X164718932Y-102406895D02*
X164337980Y-102406895D01*
X163690361Y-102406895D02*
X163842742Y-102406895D01*
X163842742Y-102406895D02*
X163918933Y-102444990D01*
X163918933Y-102444990D02*
X163957028Y-102483085D01*
X163957028Y-102483085D02*
X164033218Y-102597371D01*
X164033218Y-102597371D02*
X164071314Y-102749752D01*
X164071314Y-102749752D02*
X164071314Y-103054514D01*
X164071314Y-103054514D02*
X164033218Y-103130704D01*
X164033218Y-103130704D02*
X163995123Y-103168800D01*
X163995123Y-103168800D02*
X163918933Y-103206895D01*
X163918933Y-103206895D02*
X163766552Y-103206895D01*
X163766552Y-103206895D02*
X163690361Y-103168800D01*
X163690361Y-103168800D02*
X163652266Y-103130704D01*
X163652266Y-103130704D02*
X163614171Y-103054514D01*
X163614171Y-103054514D02*
X163614171Y-102864038D01*
X163614171Y-102864038D02*
X163652266Y-102787847D01*
X163652266Y-102787847D02*
X163690361Y-102749752D01*
X163690361Y-102749752D02*
X163766552Y-102711657D01*
X163766552Y-102711657D02*
X163918933Y-102711657D01*
X163918933Y-102711657D02*
X163995123Y-102749752D01*
X163995123Y-102749752D02*
X164033218Y-102787847D01*
X164033218Y-102787847D02*
X164071314Y-102864038D01*
X164452266Y-100247847D02*
X164718932Y-100247847D01*
X164718932Y-100666895D02*
X164718932Y-99866895D01*
X164718932Y-99866895D02*
X164337980Y-99866895D01*
X163652266Y-99866895D02*
X164033218Y-99866895D01*
X164033218Y-99866895D02*
X164071314Y-100247847D01*
X164071314Y-100247847D02*
X164033218Y-100209752D01*
X164033218Y-100209752D02*
X163957028Y-100171657D01*
X163957028Y-100171657D02*
X163766552Y-100171657D01*
X163766552Y-100171657D02*
X163690361Y-100209752D01*
X163690361Y-100209752D02*
X163652266Y-100247847D01*
X163652266Y-100247847D02*
X163614171Y-100324038D01*
X163614171Y-100324038D02*
X163614171Y-100514514D01*
X163614171Y-100514514D02*
X163652266Y-100590704D01*
X163652266Y-100590704D02*
X163690361Y-100628800D01*
X163690361Y-100628800D02*
X163766552Y-100666895D01*
X163766552Y-100666895D02*
X163957028Y-100666895D01*
X163957028Y-100666895D02*
X164033218Y-100628800D01*
X164033218Y-100628800D02*
X164071314Y-100590704D01*
X164737980Y-87966895D02*
X165004647Y-87585942D01*
X165195123Y-87966895D02*
X165195123Y-87166895D01*
X165195123Y-87166895D02*
X164890361Y-87166895D01*
X164890361Y-87166895D02*
X164814171Y-87204990D01*
X164814171Y-87204990D02*
X164776076Y-87243085D01*
X164776076Y-87243085D02*
X164737980Y-87319276D01*
X164737980Y-87319276D02*
X164737980Y-87433561D01*
X164737980Y-87433561D02*
X164776076Y-87509752D01*
X164776076Y-87509752D02*
X164814171Y-87547847D01*
X164814171Y-87547847D02*
X164890361Y-87585942D01*
X164890361Y-87585942D02*
X165195123Y-87585942D01*
X164433219Y-87738323D02*
X164052266Y-87738323D01*
X164509409Y-87966895D02*
X164242742Y-87166895D01*
X164242742Y-87166895D02*
X163976076Y-87966895D01*
X163785600Y-87166895D02*
X163595124Y-87966895D01*
X163595124Y-87966895D02*
X163442743Y-87395466D01*
X163442743Y-87395466D02*
X163290362Y-87966895D01*
X163290362Y-87966895D02*
X163099886Y-87166895D01*
X164795123Y-89744990D02*
X164871313Y-89706895D01*
X164871313Y-89706895D02*
X164985599Y-89706895D01*
X164985599Y-89706895D02*
X165099885Y-89744990D01*
X165099885Y-89744990D02*
X165176075Y-89821180D01*
X165176075Y-89821180D02*
X165214170Y-89897371D01*
X165214170Y-89897371D02*
X165252266Y-90049752D01*
X165252266Y-90049752D02*
X165252266Y-90164038D01*
X165252266Y-90164038D02*
X165214170Y-90316419D01*
X165214170Y-90316419D02*
X165176075Y-90392609D01*
X165176075Y-90392609D02*
X165099885Y-90468800D01*
X165099885Y-90468800D02*
X164985599Y-90506895D01*
X164985599Y-90506895D02*
X164909408Y-90506895D01*
X164909408Y-90506895D02*
X164795123Y-90468800D01*
X164795123Y-90468800D02*
X164757027Y-90430704D01*
X164757027Y-90430704D02*
X164757027Y-90164038D01*
X164757027Y-90164038D02*
X164909408Y-90164038D01*
X164414170Y-90506895D02*
X164414170Y-89706895D01*
X164414170Y-89706895D02*
X163957027Y-90506895D01*
X163957027Y-90506895D02*
X163957027Y-89706895D01*
X163576075Y-90506895D02*
X163576075Y-89706895D01*
X163576075Y-89706895D02*
X163385599Y-89706895D01*
X163385599Y-89706895D02*
X163271313Y-89744990D01*
X163271313Y-89744990D02*
X163195123Y-89821180D01*
X163195123Y-89821180D02*
X163157028Y-89897371D01*
X163157028Y-89897371D02*
X163118932Y-90049752D01*
X163118932Y-90049752D02*
X163118932Y-90164038D01*
X163118932Y-90164038D02*
X163157028Y-90316419D01*
X163157028Y-90316419D02*
X163195123Y-90392609D01*
X163195123Y-90392609D02*
X163271313Y-90468800D01*
X163271313Y-90468800D02*
X163385599Y-90506895D01*
X163385599Y-90506895D02*
X163576075Y-90506895D01*
X165252266Y-94786895D02*
X164985599Y-95586895D01*
X164985599Y-95586895D02*
X164718933Y-94786895D01*
X163995123Y-95510704D02*
X164033219Y-95548800D01*
X164033219Y-95548800D02*
X164147504Y-95586895D01*
X164147504Y-95586895D02*
X164223695Y-95586895D01*
X164223695Y-95586895D02*
X164337981Y-95548800D01*
X164337981Y-95548800D02*
X164414171Y-95472609D01*
X164414171Y-95472609D02*
X164452266Y-95396419D01*
X164452266Y-95396419D02*
X164490362Y-95244038D01*
X164490362Y-95244038D02*
X164490362Y-95129752D01*
X164490362Y-95129752D02*
X164452266Y-94977371D01*
X164452266Y-94977371D02*
X164414171Y-94901180D01*
X164414171Y-94901180D02*
X164337981Y-94824990D01*
X164337981Y-94824990D02*
X164223695Y-94786895D01*
X164223695Y-94786895D02*
X164147504Y-94786895D01*
X164147504Y-94786895D02*
X164033219Y-94824990D01*
X164033219Y-94824990D02*
X163995123Y-94863085D01*
X163195123Y-95510704D02*
X163233219Y-95548800D01*
X163233219Y-95548800D02*
X163347504Y-95586895D01*
X163347504Y-95586895D02*
X163423695Y-95586895D01*
X163423695Y-95586895D02*
X163537981Y-95548800D01*
X163537981Y-95548800D02*
X163614171Y-95472609D01*
X163614171Y-95472609D02*
X163652266Y-95396419D01*
X163652266Y-95396419D02*
X163690362Y-95244038D01*
X163690362Y-95244038D02*
X163690362Y-95129752D01*
X163690362Y-95129752D02*
X163652266Y-94977371D01*
X163652266Y-94977371D02*
X163614171Y-94901180D01*
X163614171Y-94901180D02*
X163537981Y-94824990D01*
X163537981Y-94824990D02*
X163423695Y-94786895D01*
X163423695Y-94786895D02*
X163347504Y-94786895D01*
X163347504Y-94786895D02*
X163233219Y-94824990D01*
X163233219Y-94824990D02*
X163195123Y-94863085D01*
X164452266Y-97707847D02*
X164718932Y-97707847D01*
X164718932Y-98126895D02*
X164718932Y-97326895D01*
X164718932Y-97326895D02*
X164337980Y-97326895D01*
X163690361Y-97593561D02*
X163690361Y-98126895D01*
X163880837Y-97288800D02*
X164071314Y-97860228D01*
X164071314Y-97860228D02*
X163576075Y-97860228D01*
X164509409Y-107867847D02*
X164395123Y-107905942D01*
X164395123Y-107905942D02*
X164357028Y-107944038D01*
X164357028Y-107944038D02*
X164318932Y-108020228D01*
X164318932Y-108020228D02*
X164318932Y-108134514D01*
X164318932Y-108134514D02*
X164357028Y-108210704D01*
X164357028Y-108210704D02*
X164395123Y-108248800D01*
X164395123Y-108248800D02*
X164471313Y-108286895D01*
X164471313Y-108286895D02*
X164776075Y-108286895D01*
X164776075Y-108286895D02*
X164776075Y-107486895D01*
X164776075Y-107486895D02*
X164509409Y-107486895D01*
X164509409Y-107486895D02*
X164433218Y-107524990D01*
X164433218Y-107524990D02*
X164395123Y-107563085D01*
X164395123Y-107563085D02*
X164357028Y-107639276D01*
X164357028Y-107639276D02*
X164357028Y-107715466D01*
X164357028Y-107715466D02*
X164395123Y-107791657D01*
X164395123Y-107791657D02*
X164433218Y-107829752D01*
X164433218Y-107829752D02*
X164509409Y-107867847D01*
X164509409Y-107867847D02*
X164776075Y-107867847D01*
X163557028Y-108286895D02*
X164014171Y-108286895D01*
X163785599Y-108286895D02*
X163785599Y-107486895D01*
X163785599Y-107486895D02*
X163861790Y-107601180D01*
X163861790Y-107601180D02*
X163937980Y-107677371D01*
X163937980Y-107677371D02*
X164014171Y-107715466D01*
X164509409Y-110407847D02*
X164395123Y-110445942D01*
X164395123Y-110445942D02*
X164357028Y-110484038D01*
X164357028Y-110484038D02*
X164318932Y-110560228D01*
X164318932Y-110560228D02*
X164318932Y-110674514D01*
X164318932Y-110674514D02*
X164357028Y-110750704D01*
X164357028Y-110750704D02*
X164395123Y-110788800D01*
X164395123Y-110788800D02*
X164471313Y-110826895D01*
X164471313Y-110826895D02*
X164776075Y-110826895D01*
X164776075Y-110826895D02*
X164776075Y-110026895D01*
X164776075Y-110026895D02*
X164509409Y-110026895D01*
X164509409Y-110026895D02*
X164433218Y-110064990D01*
X164433218Y-110064990D02*
X164395123Y-110103085D01*
X164395123Y-110103085D02*
X164357028Y-110179276D01*
X164357028Y-110179276D02*
X164357028Y-110255466D01*
X164357028Y-110255466D02*
X164395123Y-110331657D01*
X164395123Y-110331657D02*
X164433218Y-110369752D01*
X164433218Y-110369752D02*
X164509409Y-110407847D01*
X164509409Y-110407847D02*
X164776075Y-110407847D01*
X164052266Y-110026895D02*
X163557028Y-110026895D01*
X163557028Y-110026895D02*
X163823694Y-110331657D01*
X163823694Y-110331657D02*
X163709409Y-110331657D01*
X163709409Y-110331657D02*
X163633218Y-110369752D01*
X163633218Y-110369752D02*
X163595123Y-110407847D01*
X163595123Y-110407847D02*
X163557028Y-110484038D01*
X163557028Y-110484038D02*
X163557028Y-110674514D01*
X163557028Y-110674514D02*
X163595123Y-110750704D01*
X163595123Y-110750704D02*
X163633218Y-110788800D01*
X163633218Y-110788800D02*
X163709409Y-110826895D01*
X163709409Y-110826895D02*
X163937980Y-110826895D01*
X163937980Y-110826895D02*
X164014171Y-110788800D01*
X164014171Y-110788800D02*
X164052266Y-110750704D01*
X164509409Y-115487847D02*
X164395123Y-115525942D01*
X164395123Y-115525942D02*
X164357028Y-115564038D01*
X164357028Y-115564038D02*
X164318932Y-115640228D01*
X164318932Y-115640228D02*
X164318932Y-115754514D01*
X164318932Y-115754514D02*
X164357028Y-115830704D01*
X164357028Y-115830704D02*
X164395123Y-115868800D01*
X164395123Y-115868800D02*
X164471313Y-115906895D01*
X164471313Y-115906895D02*
X164776075Y-115906895D01*
X164776075Y-115906895D02*
X164776075Y-115106895D01*
X164776075Y-115106895D02*
X164509409Y-115106895D01*
X164509409Y-115106895D02*
X164433218Y-115144990D01*
X164433218Y-115144990D02*
X164395123Y-115183085D01*
X164395123Y-115183085D02*
X164357028Y-115259276D01*
X164357028Y-115259276D02*
X164357028Y-115335466D01*
X164357028Y-115335466D02*
X164395123Y-115411657D01*
X164395123Y-115411657D02*
X164433218Y-115449752D01*
X164433218Y-115449752D02*
X164509409Y-115487847D01*
X164509409Y-115487847D02*
X164776075Y-115487847D01*
X163633218Y-115106895D02*
X163785599Y-115106895D01*
X163785599Y-115106895D02*
X163861790Y-115144990D01*
X163861790Y-115144990D02*
X163899885Y-115183085D01*
X163899885Y-115183085D02*
X163976075Y-115297371D01*
X163976075Y-115297371D02*
X164014171Y-115449752D01*
X164014171Y-115449752D02*
X164014171Y-115754514D01*
X164014171Y-115754514D02*
X163976075Y-115830704D01*
X163976075Y-115830704D02*
X163937980Y-115868800D01*
X163937980Y-115868800D02*
X163861790Y-115906895D01*
X163861790Y-115906895D02*
X163709409Y-115906895D01*
X163709409Y-115906895D02*
X163633218Y-115868800D01*
X163633218Y-115868800D02*
X163595123Y-115830704D01*
X163595123Y-115830704D02*
X163557028Y-115754514D01*
X163557028Y-115754514D02*
X163557028Y-115564038D01*
X163557028Y-115564038D02*
X163595123Y-115487847D01*
X163595123Y-115487847D02*
X163633218Y-115449752D01*
X163633218Y-115449752D02*
X163709409Y-115411657D01*
X163709409Y-115411657D02*
X163861790Y-115411657D01*
X163861790Y-115411657D02*
X163937980Y-115449752D01*
X163937980Y-115449752D02*
X163976075Y-115487847D01*
X163976075Y-115487847D02*
X164014171Y-115564038D01*
X153587409Y-115487847D02*
X153473123Y-115525942D01*
X153473123Y-115525942D02*
X153435028Y-115564038D01*
X153435028Y-115564038D02*
X153396932Y-115640228D01*
X153396932Y-115640228D02*
X153396932Y-115754514D01*
X153396932Y-115754514D02*
X153435028Y-115830704D01*
X153435028Y-115830704D02*
X153473123Y-115868800D01*
X153473123Y-115868800D02*
X153549313Y-115906895D01*
X153549313Y-115906895D02*
X153854075Y-115906895D01*
X153854075Y-115906895D02*
X153854075Y-115106895D01*
X153854075Y-115106895D02*
X153587409Y-115106895D01*
X153587409Y-115106895D02*
X153511218Y-115144990D01*
X153511218Y-115144990D02*
X153473123Y-115183085D01*
X153473123Y-115183085D02*
X153435028Y-115259276D01*
X153435028Y-115259276D02*
X153435028Y-115335466D01*
X153435028Y-115335466D02*
X153473123Y-115411657D01*
X153473123Y-115411657D02*
X153511218Y-115449752D01*
X153511218Y-115449752D02*
X153587409Y-115487847D01*
X153587409Y-115487847D02*
X153854075Y-115487847D01*
X152673123Y-115106895D02*
X153054075Y-115106895D01*
X153054075Y-115106895D02*
X153092171Y-115487847D01*
X153092171Y-115487847D02*
X153054075Y-115449752D01*
X153054075Y-115449752D02*
X152977885Y-115411657D01*
X152977885Y-115411657D02*
X152787409Y-115411657D01*
X152787409Y-115411657D02*
X152711218Y-115449752D01*
X152711218Y-115449752D02*
X152673123Y-115487847D01*
X152673123Y-115487847D02*
X152635028Y-115564038D01*
X152635028Y-115564038D02*
X152635028Y-115754514D01*
X152635028Y-115754514D02*
X152673123Y-115830704D01*
X152673123Y-115830704D02*
X152711218Y-115868800D01*
X152711218Y-115868800D02*
X152787409Y-115906895D01*
X152787409Y-115906895D02*
X152977885Y-115906895D01*
X152977885Y-115906895D02*
X153054075Y-115868800D01*
X153054075Y-115868800D02*
X153092171Y-115830704D01*
X153587409Y-112947847D02*
X153473123Y-112985942D01*
X153473123Y-112985942D02*
X153435028Y-113024038D01*
X153435028Y-113024038D02*
X153396932Y-113100228D01*
X153396932Y-113100228D02*
X153396932Y-113214514D01*
X153396932Y-113214514D02*
X153435028Y-113290704D01*
X153435028Y-113290704D02*
X153473123Y-113328800D01*
X153473123Y-113328800D02*
X153549313Y-113366895D01*
X153549313Y-113366895D02*
X153854075Y-113366895D01*
X153854075Y-113366895D02*
X153854075Y-112566895D01*
X153854075Y-112566895D02*
X153587409Y-112566895D01*
X153587409Y-112566895D02*
X153511218Y-112604990D01*
X153511218Y-112604990D02*
X153473123Y-112643085D01*
X153473123Y-112643085D02*
X153435028Y-112719276D01*
X153435028Y-112719276D02*
X153435028Y-112795466D01*
X153435028Y-112795466D02*
X153473123Y-112871657D01*
X153473123Y-112871657D02*
X153511218Y-112909752D01*
X153511218Y-112909752D02*
X153587409Y-112947847D01*
X153587409Y-112947847D02*
X153854075Y-112947847D01*
X152711218Y-112833561D02*
X152711218Y-113366895D01*
X152901694Y-112528800D02*
X153092171Y-113100228D01*
X153092171Y-113100228D02*
X152596932Y-113100228D01*
X153815980Y-110407847D02*
X153549314Y-110407847D01*
X153435028Y-110826895D02*
X153815980Y-110826895D01*
X153815980Y-110826895D02*
X153815980Y-110026895D01*
X153815980Y-110026895D02*
X153435028Y-110026895D01*
X152749313Y-110026895D02*
X152901694Y-110026895D01*
X152901694Y-110026895D02*
X152977885Y-110064990D01*
X152977885Y-110064990D02*
X153015980Y-110103085D01*
X153015980Y-110103085D02*
X153092170Y-110217371D01*
X153092170Y-110217371D02*
X153130266Y-110369752D01*
X153130266Y-110369752D02*
X153130266Y-110674514D01*
X153130266Y-110674514D02*
X153092170Y-110750704D01*
X153092170Y-110750704D02*
X153054075Y-110788800D01*
X153054075Y-110788800D02*
X152977885Y-110826895D01*
X152977885Y-110826895D02*
X152825504Y-110826895D01*
X152825504Y-110826895D02*
X152749313Y-110788800D01*
X152749313Y-110788800D02*
X152711218Y-110750704D01*
X152711218Y-110750704D02*
X152673123Y-110674514D01*
X152673123Y-110674514D02*
X152673123Y-110484038D01*
X152673123Y-110484038D02*
X152711218Y-110407847D01*
X152711218Y-110407847D02*
X152749313Y-110369752D01*
X152749313Y-110369752D02*
X152825504Y-110331657D01*
X152825504Y-110331657D02*
X152977885Y-110331657D01*
X152977885Y-110331657D02*
X153054075Y-110369752D01*
X153054075Y-110369752D02*
X153092170Y-110407847D01*
X153092170Y-110407847D02*
X153130266Y-110484038D01*
X153854075Y-108286895D02*
X153854075Y-107486895D01*
X153854075Y-107486895D02*
X153663599Y-107486895D01*
X153663599Y-107486895D02*
X153549313Y-107524990D01*
X153549313Y-107524990D02*
X153473123Y-107601180D01*
X153473123Y-107601180D02*
X153435028Y-107677371D01*
X153435028Y-107677371D02*
X153396932Y-107829752D01*
X153396932Y-107829752D02*
X153396932Y-107944038D01*
X153396932Y-107944038D02*
X153435028Y-108096419D01*
X153435028Y-108096419D02*
X153473123Y-108172609D01*
X153473123Y-108172609D02*
X153549313Y-108248800D01*
X153549313Y-108248800D02*
X153663599Y-108286895D01*
X153663599Y-108286895D02*
X153854075Y-108286895D01*
X153130266Y-107486895D02*
X152596932Y-107486895D01*
X152596932Y-107486895D02*
X152939790Y-108286895D01*
X153396932Y-105670704D02*
X153435028Y-105708800D01*
X153435028Y-105708800D02*
X153549313Y-105746895D01*
X153549313Y-105746895D02*
X153625504Y-105746895D01*
X153625504Y-105746895D02*
X153739790Y-105708800D01*
X153739790Y-105708800D02*
X153815980Y-105632609D01*
X153815980Y-105632609D02*
X153854075Y-105556419D01*
X153854075Y-105556419D02*
X153892171Y-105404038D01*
X153892171Y-105404038D02*
X153892171Y-105289752D01*
X153892171Y-105289752D02*
X153854075Y-105137371D01*
X153854075Y-105137371D02*
X153815980Y-105061180D01*
X153815980Y-105061180D02*
X153739790Y-104984990D01*
X153739790Y-104984990D02*
X153625504Y-104946895D01*
X153625504Y-104946895D02*
X153549313Y-104946895D01*
X153549313Y-104946895D02*
X153435028Y-104984990D01*
X153435028Y-104984990D02*
X153396932Y-105023085D01*
X152711218Y-104946895D02*
X152863599Y-104946895D01*
X152863599Y-104946895D02*
X152939790Y-104984990D01*
X152939790Y-104984990D02*
X152977885Y-105023085D01*
X152977885Y-105023085D02*
X153054075Y-105137371D01*
X153054075Y-105137371D02*
X153092171Y-105289752D01*
X153092171Y-105289752D02*
X153092171Y-105594514D01*
X153092171Y-105594514D02*
X153054075Y-105670704D01*
X153054075Y-105670704D02*
X153015980Y-105708800D01*
X153015980Y-105708800D02*
X152939790Y-105746895D01*
X152939790Y-105746895D02*
X152787409Y-105746895D01*
X152787409Y-105746895D02*
X152711218Y-105708800D01*
X152711218Y-105708800D02*
X152673123Y-105670704D01*
X152673123Y-105670704D02*
X152635028Y-105594514D01*
X152635028Y-105594514D02*
X152635028Y-105404038D01*
X152635028Y-105404038D02*
X152673123Y-105327847D01*
X152673123Y-105327847D02*
X152711218Y-105289752D01*
X152711218Y-105289752D02*
X152787409Y-105251657D01*
X152787409Y-105251657D02*
X152939790Y-105251657D01*
X152939790Y-105251657D02*
X153015980Y-105289752D01*
X153015980Y-105289752D02*
X153054075Y-105327847D01*
X153054075Y-105327847D02*
X153092171Y-105404038D01*
X153854075Y-103206895D02*
X153854075Y-102406895D01*
X153854075Y-102406895D02*
X153663599Y-102406895D01*
X153663599Y-102406895D02*
X153549313Y-102444990D01*
X153549313Y-102444990D02*
X153473123Y-102521180D01*
X153473123Y-102521180D02*
X153435028Y-102597371D01*
X153435028Y-102597371D02*
X153396932Y-102749752D01*
X153396932Y-102749752D02*
X153396932Y-102864038D01*
X153396932Y-102864038D02*
X153435028Y-103016419D01*
X153435028Y-103016419D02*
X153473123Y-103092609D01*
X153473123Y-103092609D02*
X153549313Y-103168800D01*
X153549313Y-103168800D02*
X153663599Y-103206895D01*
X153663599Y-103206895D02*
X153854075Y-103206895D01*
X152711218Y-102673561D02*
X152711218Y-103206895D01*
X152901694Y-102368800D02*
X153092171Y-102940228D01*
X153092171Y-102940228D02*
X152596932Y-102940228D01*
X153873123Y-92284990D02*
X153949313Y-92246895D01*
X153949313Y-92246895D02*
X154063599Y-92246895D01*
X154063599Y-92246895D02*
X154177885Y-92284990D01*
X154177885Y-92284990D02*
X154254075Y-92361180D01*
X154254075Y-92361180D02*
X154292170Y-92437371D01*
X154292170Y-92437371D02*
X154330266Y-92589752D01*
X154330266Y-92589752D02*
X154330266Y-92704038D01*
X154330266Y-92704038D02*
X154292170Y-92856419D01*
X154292170Y-92856419D02*
X154254075Y-92932609D01*
X154254075Y-92932609D02*
X154177885Y-93008800D01*
X154177885Y-93008800D02*
X154063599Y-93046895D01*
X154063599Y-93046895D02*
X153987408Y-93046895D01*
X153987408Y-93046895D02*
X153873123Y-93008800D01*
X153873123Y-93008800D02*
X153835027Y-92970704D01*
X153835027Y-92970704D02*
X153835027Y-92704038D01*
X153835027Y-92704038D02*
X153987408Y-92704038D01*
X153492170Y-93046895D02*
X153492170Y-92246895D01*
X153492170Y-92246895D02*
X153035027Y-93046895D01*
X153035027Y-93046895D02*
X153035027Y-92246895D01*
X152654075Y-93046895D02*
X152654075Y-92246895D01*
X152654075Y-92246895D02*
X152463599Y-92246895D01*
X152463599Y-92246895D02*
X152349313Y-92284990D01*
X152349313Y-92284990D02*
X152273123Y-92361180D01*
X152273123Y-92361180D02*
X152235028Y-92437371D01*
X152235028Y-92437371D02*
X152196932Y-92589752D01*
X152196932Y-92589752D02*
X152196932Y-92704038D01*
X152196932Y-92704038D02*
X152235028Y-92856419D01*
X152235028Y-92856419D02*
X152273123Y-92932609D01*
X152273123Y-92932609D02*
X152349313Y-93008800D01*
X152349313Y-93008800D02*
X152463599Y-93046895D01*
X152463599Y-93046895D02*
X152654075Y-93046895D01*
X153873123Y-94824990D02*
X153949313Y-94786895D01*
X153949313Y-94786895D02*
X154063599Y-94786895D01*
X154063599Y-94786895D02*
X154177885Y-94824990D01*
X154177885Y-94824990D02*
X154254075Y-94901180D01*
X154254075Y-94901180D02*
X154292170Y-94977371D01*
X154292170Y-94977371D02*
X154330266Y-95129752D01*
X154330266Y-95129752D02*
X154330266Y-95244038D01*
X154330266Y-95244038D02*
X154292170Y-95396419D01*
X154292170Y-95396419D02*
X154254075Y-95472609D01*
X154254075Y-95472609D02*
X154177885Y-95548800D01*
X154177885Y-95548800D02*
X154063599Y-95586895D01*
X154063599Y-95586895D02*
X153987408Y-95586895D01*
X153987408Y-95586895D02*
X153873123Y-95548800D01*
X153873123Y-95548800D02*
X153835027Y-95510704D01*
X153835027Y-95510704D02*
X153835027Y-95244038D01*
X153835027Y-95244038D02*
X153987408Y-95244038D01*
X153492170Y-95586895D02*
X153492170Y-94786895D01*
X153492170Y-94786895D02*
X153035027Y-95586895D01*
X153035027Y-95586895D02*
X153035027Y-94786895D01*
X152654075Y-95586895D02*
X152654075Y-94786895D01*
X152654075Y-94786895D02*
X152463599Y-94786895D01*
X152463599Y-94786895D02*
X152349313Y-94824990D01*
X152349313Y-94824990D02*
X152273123Y-94901180D01*
X152273123Y-94901180D02*
X152235028Y-94977371D01*
X152235028Y-94977371D02*
X152196932Y-95129752D01*
X152196932Y-95129752D02*
X152196932Y-95244038D01*
X152196932Y-95244038D02*
X152235028Y-95396419D01*
X152235028Y-95396419D02*
X152273123Y-95472609D01*
X152273123Y-95472609D02*
X152349313Y-95548800D01*
X152349313Y-95548800D02*
X152463599Y-95586895D01*
X152463599Y-95586895D02*
X152654075Y-95586895D01*
X153854075Y-98126895D02*
X153854075Y-97326895D01*
X153854075Y-97326895D02*
X153663599Y-97326895D01*
X153663599Y-97326895D02*
X153549313Y-97364990D01*
X153549313Y-97364990D02*
X153473123Y-97441180D01*
X153473123Y-97441180D02*
X153435028Y-97517371D01*
X153435028Y-97517371D02*
X153396932Y-97669752D01*
X153396932Y-97669752D02*
X153396932Y-97784038D01*
X153396932Y-97784038D02*
X153435028Y-97936419D01*
X153435028Y-97936419D02*
X153473123Y-98012609D01*
X153473123Y-98012609D02*
X153549313Y-98088800D01*
X153549313Y-98088800D02*
X153663599Y-98126895D01*
X153663599Y-98126895D02*
X153854075Y-98126895D01*
X152635028Y-98126895D02*
X153092171Y-98126895D01*
X152863599Y-98126895D02*
X152863599Y-97326895D01*
X152863599Y-97326895D02*
X152939790Y-97441180D01*
X152939790Y-97441180D02*
X153015980Y-97517371D01*
X153015980Y-97517371D02*
X153092171Y-97555466D01*
X153854075Y-100666895D02*
X153854075Y-99866895D01*
X153854075Y-99866895D02*
X153663599Y-99866895D01*
X153663599Y-99866895D02*
X153549313Y-99904990D01*
X153549313Y-99904990D02*
X153473123Y-99981180D01*
X153473123Y-99981180D02*
X153435028Y-100057371D01*
X153435028Y-100057371D02*
X153396932Y-100209752D01*
X153396932Y-100209752D02*
X153396932Y-100324038D01*
X153396932Y-100324038D02*
X153435028Y-100476419D01*
X153435028Y-100476419D02*
X153473123Y-100552609D01*
X153473123Y-100552609D02*
X153549313Y-100628800D01*
X153549313Y-100628800D02*
X153663599Y-100666895D01*
X153663599Y-100666895D02*
X153854075Y-100666895D01*
X152901694Y-99866895D02*
X152825504Y-99866895D01*
X152825504Y-99866895D02*
X152749313Y-99904990D01*
X152749313Y-99904990D02*
X152711218Y-99943085D01*
X152711218Y-99943085D02*
X152673123Y-100019276D01*
X152673123Y-100019276D02*
X152635028Y-100171657D01*
X152635028Y-100171657D02*
X152635028Y-100362133D01*
X152635028Y-100362133D02*
X152673123Y-100514514D01*
X152673123Y-100514514D02*
X152711218Y-100590704D01*
X152711218Y-100590704D02*
X152749313Y-100628800D01*
X152749313Y-100628800D02*
X152825504Y-100666895D01*
X152825504Y-100666895D02*
X152901694Y-100666895D01*
X152901694Y-100666895D02*
X152977885Y-100628800D01*
X152977885Y-100628800D02*
X153015980Y-100590704D01*
X153015980Y-100590704D02*
X153054075Y-100514514D01*
X153054075Y-100514514D02*
X153092171Y-100362133D01*
X153092171Y-100362133D02*
X153092171Y-100171657D01*
X153092171Y-100171657D02*
X153054075Y-100019276D01*
X153054075Y-100019276D02*
X153015980Y-99943085D01*
X153015980Y-99943085D02*
X152977885Y-99904990D01*
X152977885Y-99904990D02*
X152901694Y-99866895D01*
X153854075Y-90506895D02*
X153854075Y-89706895D01*
X153854075Y-89706895D02*
X153663599Y-89706895D01*
X153663599Y-89706895D02*
X153549313Y-89744990D01*
X153549313Y-89744990D02*
X153473123Y-89821180D01*
X153473123Y-89821180D02*
X153435028Y-89897371D01*
X153435028Y-89897371D02*
X153396932Y-90049752D01*
X153396932Y-90049752D02*
X153396932Y-90164038D01*
X153396932Y-90164038D02*
X153435028Y-90316419D01*
X153435028Y-90316419D02*
X153473123Y-90392609D01*
X153473123Y-90392609D02*
X153549313Y-90468800D01*
X153549313Y-90468800D02*
X153663599Y-90506895D01*
X153663599Y-90506895D02*
X153854075Y-90506895D01*
X153092171Y-89783085D02*
X153054075Y-89744990D01*
X153054075Y-89744990D02*
X152977885Y-89706895D01*
X152977885Y-89706895D02*
X152787409Y-89706895D01*
X152787409Y-89706895D02*
X152711218Y-89744990D01*
X152711218Y-89744990D02*
X152673123Y-89783085D01*
X152673123Y-89783085D02*
X152635028Y-89859276D01*
X152635028Y-89859276D02*
X152635028Y-89935466D01*
X152635028Y-89935466D02*
X152673123Y-90049752D01*
X152673123Y-90049752D02*
X153130266Y-90506895D01*
X153130266Y-90506895D02*
X152635028Y-90506895D01*
D12*
%TO.C,G\u002A\u002A\u002A*%
G36*
X168747915Y-97658280D02*
G01*
X168757712Y-97671133D01*
X168836693Y-97700901D01*
X168973356Y-97711912D01*
X169038359Y-97713345D01*
X169149196Y-97723611D01*
X169205761Y-97740515D01*
X169217227Y-97757368D01*
X169234364Y-97832976D01*
X169233344Y-97853961D01*
X169214140Y-97870623D01*
X169155901Y-97825825D01*
X169153230Y-97823476D01*
X169047034Y-97773808D01*
X168898469Y-97754817D01*
X168803261Y-97750763D01*
X168738177Y-97728691D01*
X168722887Y-97679733D01*
X168729026Y-97643230D01*
X168747915Y-97658280D01*
G37*
G36*
X169202185Y-98092587D02*
G01*
X169247949Y-98131857D01*
X169277270Y-98167672D01*
X169276565Y-98175201D01*
X169248611Y-98175491D01*
X169185986Y-98108787D01*
X169162018Y-98077699D01*
X169151364Y-98055481D01*
X169202185Y-98092587D01*
G37*
G36*
X169255974Y-97068383D02*
G01*
X169278468Y-97075895D01*
X169245595Y-97099711D01*
X169148983Y-97144319D01*
X168980261Y-97214210D01*
X168901054Y-97246082D01*
X168765770Y-97298335D01*
X168694258Y-97320613D01*
X168675929Y-97315635D01*
X168700192Y-97286119D01*
X168717438Y-97273820D01*
X168803325Y-97230656D01*
X168929018Y-97176982D01*
X169065248Y-97124342D01*
X169182745Y-97084284D01*
X169252242Y-97068352D01*
X169255974Y-97068383D01*
G37*
G36*
X168787887Y-91530907D02*
G01*
X168887924Y-91574808D01*
X168932526Y-91597178D01*
X169066776Y-91660857D01*
X169171468Y-91705710D01*
X169241815Y-91743189D01*
X169277270Y-91788082D01*
X169267286Y-91795311D01*
X169203142Y-91782010D01*
X169098668Y-91742412D01*
X168976271Y-91686982D01*
X168858356Y-91626188D01*
X168767329Y-91570497D01*
X168725597Y-91530374D01*
X168731020Y-91520074D01*
X168787887Y-91530907D01*
G37*
G36*
X169335630Y-91891254D02*
G01*
X169355363Y-91968928D01*
X169363080Y-92091303D01*
X169360185Y-92168579D01*
X169344650Y-92267243D01*
X169320175Y-92305831D01*
X169304720Y-92291353D01*
X169284987Y-92213679D01*
X169277270Y-92091303D01*
X169280165Y-92014028D01*
X169295700Y-91915364D01*
X169320175Y-91876776D01*
X169335630Y-91891254D01*
G37*
G36*
X169424643Y-91077228D02*
G01*
X169339233Y-91129430D01*
X169210378Y-91199883D01*
X169057142Y-91279006D01*
X168898587Y-91357222D01*
X168753775Y-91424950D01*
X168641771Y-91472612D01*
X168581635Y-91490628D01*
X168553459Y-91485537D01*
X168566815Y-91458761D01*
X168648216Y-91406934D01*
X168801515Y-91327726D01*
X169030564Y-91218802D01*
X169171678Y-91155051D01*
X169315190Y-91094761D01*
X169412842Y-91059293D01*
X169448891Y-91054819D01*
X169424643Y-91077228D01*
G37*
G36*
X169538610Y-97172857D02*
G01*
X169551735Y-97204198D01*
X169548236Y-97209214D01*
X169489265Y-97239952D01*
X169481397Y-97239266D01*
X169448891Y-97204198D01*
X169455433Y-97188317D01*
X169511362Y-97168443D01*
X169538610Y-97172857D01*
G37*
G36*
X169556155Y-91190290D02*
G01*
X169590933Y-91226004D01*
X169620513Y-91286608D01*
X169607934Y-91301850D01*
X169556155Y-91276101D01*
X169521376Y-91240387D01*
X169491797Y-91179783D01*
X169504375Y-91164541D01*
X169556155Y-91190290D01*
G37*
G36*
X169844658Y-91924058D02*
G01*
X169868429Y-91983834D01*
X169877945Y-92091303D01*
X169876851Y-92129774D01*
X169861907Y-92224862D01*
X169835040Y-92262925D01*
X169825422Y-92258549D01*
X169801650Y-92198773D01*
X169792135Y-92091303D01*
X169793229Y-92052833D01*
X169808172Y-91957745D01*
X169835040Y-91919682D01*
X169844658Y-91924058D01*
G37*
G36*
X169565433Y-99267233D02*
G01*
X169580822Y-99330170D01*
X169624496Y-99375967D01*
X169708605Y-99371814D01*
X169849875Y-99320864D01*
X169878773Y-99308955D01*
X169976044Y-99271571D01*
X170026736Y-99256506D01*
X170045375Y-99259019D01*
X170039868Y-99282076D01*
X169978535Y-99322068D01*
X169878792Y-99370178D01*
X169758056Y-99417587D01*
X169633743Y-99455478D01*
X169620878Y-99458600D01*
X169563769Y-99461751D01*
X169541710Y-99420686D01*
X169541131Y-99314789D01*
X169546062Y-99229092D01*
X169553676Y-99209086D01*
X169565433Y-99267233D01*
G37*
G36*
X169605747Y-92804095D02*
G01*
X169620513Y-92884427D01*
X169620513Y-92991065D01*
X169835040Y-92906506D01*
X169922136Y-92875323D01*
X170013943Y-92852330D01*
X170049567Y-92858272D01*
X170032658Y-92874919D01*
X169957439Y-92917232D01*
X169845639Y-92970275D01*
X169723417Y-93022483D01*
X169616931Y-93062289D01*
X169552337Y-93078128D01*
X169550044Y-93076855D01*
X169539138Y-93027282D01*
X169534702Y-92927959D01*
X169535073Y-92908251D01*
X169549248Y-92815507D01*
X169577608Y-92777790D01*
X169605747Y-92804095D01*
G37*
G36*
X170029151Y-97584056D02*
G01*
X170063350Y-97619112D01*
X170074911Y-97657964D01*
X170043832Y-97664672D01*
X169990565Y-97631619D01*
X169963756Y-97575410D01*
X169975203Y-97556387D01*
X170029151Y-97584056D01*
G37*
G36*
X169957467Y-90808378D02*
G01*
X169968310Y-90812270D01*
X170056354Y-90854078D01*
X170092472Y-90890422D01*
X170092115Y-90892906D01*
X170051672Y-90900583D01*
X169964598Y-90877137D01*
X169830595Y-90850457D01*
X169664260Y-90874903D01*
X169619987Y-90885534D01*
X169528297Y-90897551D01*
X169491797Y-90885645D01*
X169515213Y-90852352D01*
X169600281Y-90817048D01*
X169721116Y-90794836D01*
X169849562Y-90790389D01*
X169957467Y-90808378D01*
G37*
G36*
X170094438Y-98315768D02*
G01*
X170108013Y-98345071D01*
X170108562Y-98407076D01*
X170060958Y-98439263D01*
X169995762Y-98430022D01*
X169963756Y-98379478D01*
X169972315Y-98352961D01*
X170006662Y-98352961D01*
X170008310Y-98365414D01*
X170049567Y-98398398D01*
X170059277Y-98397906D01*
X170092472Y-98379478D01*
X170090498Y-98372595D01*
X170049567Y-98334040D01*
X170032947Y-98327336D01*
X170006662Y-98352961D01*
X169972315Y-98352961D01*
X169985463Y-98312227D01*
X170032947Y-98286438D01*
X170040020Y-98282597D01*
X170094438Y-98315768D01*
G37*
G36*
X169931228Y-96949362D02*
G01*
X170056062Y-96985996D01*
X170106195Y-97020372D01*
X170121274Y-97053830D01*
X170084556Y-97055588D01*
X170005583Y-97024848D01*
X169978238Y-97013143D01*
X169842952Y-96992430D01*
X169675686Y-97002991D01*
X169513249Y-97043437D01*
X169463900Y-97061022D01*
X169453580Y-97056071D01*
X169510724Y-97007475D01*
X169513672Y-97005147D01*
X169622314Y-96960423D01*
X169774072Y-96941333D01*
X169931228Y-96949362D01*
G37*
G36*
X170493304Y-98874853D02*
G01*
X170580114Y-98933223D01*
X170625290Y-98969545D01*
X170704642Y-99045524D01*
X170736053Y-99095476D01*
X170735646Y-99098867D01*
X170703087Y-99098700D01*
X170634637Y-99058248D01*
X170553203Y-98995073D01*
X170481694Y-98926739D01*
X170443017Y-98870809D01*
X170445944Y-98858712D01*
X170493304Y-98874853D01*
G37*
G36*
X170681730Y-98236913D02*
G01*
X170654967Y-98285442D01*
X170630550Y-98339077D01*
X170673006Y-98399486D01*
X170719544Y-98465581D01*
X170716012Y-98549101D01*
X170650243Y-98604007D01*
X170648382Y-98604571D01*
X170609233Y-98608315D01*
X170638930Y-98567388D01*
X170643669Y-98562220D01*
X170667127Y-98504778D01*
X170623001Y-98434906D01*
X170612116Y-98421620D01*
X170578883Y-98335474D01*
X170594548Y-98259476D01*
X170654150Y-98226776D01*
X170681730Y-98236913D01*
G37*
G36*
X170378320Y-97100510D02*
G01*
X170388118Y-97113363D01*
X170467098Y-97143131D01*
X170603762Y-97154141D01*
X170668764Y-97155575D01*
X170779601Y-97165841D01*
X170836166Y-97182745D01*
X170847632Y-97199598D01*
X170864770Y-97275206D01*
X170863749Y-97296191D01*
X170844545Y-97312852D01*
X170786307Y-97268055D01*
X170783636Y-97265706D01*
X170677440Y-97216038D01*
X170528874Y-97197047D01*
X170433667Y-97192993D01*
X170368583Y-97170920D01*
X170353292Y-97121962D01*
X170359432Y-97085460D01*
X170378320Y-97100510D01*
G37*
G36*
X170321064Y-92776214D02*
G01*
X170427543Y-92819868D01*
X170568829Y-92887268D01*
X170612125Y-92909508D01*
X170740247Y-92981524D01*
X170823399Y-93038263D01*
X170845283Y-93069011D01*
X170828642Y-93071060D01*
X170752638Y-93047207D01*
X170638540Y-92996528D01*
X170509495Y-92931072D01*
X170388651Y-92862887D01*
X170299154Y-92804022D01*
X170264151Y-92766524D01*
X170267316Y-92763411D01*
X170321064Y-92776214D01*
G37*
G36*
X170843317Y-91190290D02*
G01*
X170878096Y-91226004D01*
X170907675Y-91286608D01*
X170895097Y-91301850D01*
X170843317Y-91276101D01*
X170808538Y-91240387D01*
X170778959Y-91179783D01*
X170791537Y-91164541D01*
X170843317Y-91190290D01*
G37*
G36*
X170779991Y-90862582D02*
G01*
X170883615Y-90865840D01*
X170918254Y-90871386D01*
X170875496Y-90878462D01*
X170857452Y-90879941D01*
X170681665Y-90885214D01*
X170510800Y-90878462D01*
X170476423Y-90874280D01*
X170478872Y-90867984D01*
X170553917Y-90863651D01*
X170693148Y-90862038D01*
X170779991Y-90862582D01*
G37*
G36*
X171242415Y-97256150D02*
G01*
X171261870Y-97277217D01*
X171266001Y-97348343D01*
X171247750Y-97375678D01*
X171194904Y-97382019D01*
X171172606Y-97362240D01*
X171199667Y-97335696D01*
X171218269Y-97324681D01*
X171223104Y-97272564D01*
X171214749Y-97253113D01*
X171242415Y-97256150D01*
G37*
G36*
X171285779Y-91107161D02*
G01*
X171275718Y-91127923D01*
X171210694Y-91182245D01*
X171184865Y-91184595D01*
X171173152Y-91144703D01*
X171182249Y-91125932D01*
X171208013Y-91125932D01*
X171229466Y-91147385D01*
X171250918Y-91125932D01*
X171229466Y-91104479D01*
X171208013Y-91125932D01*
X171182249Y-91125932D01*
X171183214Y-91123941D01*
X171229466Y-91085301D01*
X171248237Y-91069619D01*
X171274067Y-91067268D01*
X171285779Y-91107161D01*
G37*
G36*
X171336729Y-98313007D02*
G01*
X171341105Y-98322530D01*
X171400880Y-98346070D01*
X171508351Y-98355493D01*
X171546821Y-98356587D01*
X171641909Y-98371531D01*
X171679972Y-98398398D01*
X171675596Y-98408016D01*
X171615821Y-98431788D01*
X171508351Y-98441303D01*
X171432759Y-98444089D01*
X171355892Y-98465832D01*
X171331752Y-98516388D01*
X171330182Y-98538798D01*
X171323460Y-98569266D01*
X171307153Y-98516388D01*
X171291156Y-98476603D01*
X171250918Y-98441303D01*
X171228517Y-98452788D01*
X171194683Y-98516388D01*
X171190224Y-98532886D01*
X171176804Y-98559963D01*
X171170085Y-98504471D01*
X171187006Y-98431435D01*
X171250918Y-98343995D01*
X171310003Y-98305152D01*
X171336729Y-98313007D01*
G37*
G36*
X171695339Y-100075524D02*
G01*
X171604888Y-100179128D01*
X171561258Y-100218794D01*
X171450218Y-100298184D01*
X171332435Y-100362802D01*
X171232742Y-100400021D01*
X171175972Y-100397213D01*
X171174960Y-100395974D01*
X171198066Y-100366233D01*
X171277147Y-100327787D01*
X171323951Y-100305354D01*
X171442828Y-100226230D01*
X171561983Y-100124805D01*
X171602842Y-100086702D01*
X171688709Y-100022212D01*
X171721410Y-100020852D01*
X171695339Y-100075524D01*
G37*
G36*
X171205192Y-99598240D02*
G01*
X171297934Y-99628494D01*
X171422540Y-99642655D01*
X171536427Y-99630684D01*
X171639888Y-99598240D01*
X171692434Y-99577902D01*
X171722878Y-99594912D01*
X171711891Y-99623030D01*
X171640041Y-99668245D01*
X171524523Y-99697424D01*
X171392810Y-99705038D01*
X171272371Y-99685560D01*
X171249077Y-99677375D01*
X171158777Y-99633783D01*
X171122202Y-99594912D01*
X171137926Y-99577312D01*
X171205192Y-99598240D01*
G37*
G36*
X171361343Y-97667818D02*
G01*
X171483584Y-97680227D01*
X171589733Y-97703487D01*
X171655455Y-97736429D01*
X171694539Y-97787302D01*
X171722878Y-97867095D01*
X171722878Y-97867178D01*
X171691786Y-97943242D01*
X171617883Y-98033627D01*
X171529925Y-98108894D01*
X171456669Y-98139606D01*
X171449209Y-98138217D01*
X171455842Y-98107727D01*
X171519077Y-98050217D01*
X171598842Y-97967546D01*
X171637067Y-97858502D01*
X171633573Y-97809714D01*
X171607598Y-97772982D01*
X171537965Y-97757800D01*
X171403619Y-97754817D01*
X171309871Y-97751356D01*
X171198124Y-97735778D01*
X171143655Y-97711912D01*
X171141434Y-97707342D01*
X171165932Y-97680209D01*
X171247347Y-97667423D01*
X171361343Y-97667818D01*
G37*
G36*
X171361343Y-96981331D02*
G01*
X171483584Y-96993741D01*
X171589733Y-97017000D01*
X171655455Y-97049942D01*
X171694539Y-97100815D01*
X171722878Y-97180609D01*
X171722878Y-97180692D01*
X171691786Y-97256756D01*
X171617883Y-97347140D01*
X171529925Y-97422407D01*
X171456669Y-97453120D01*
X171449209Y-97451731D01*
X171455842Y-97421241D01*
X171519077Y-97363730D01*
X171598842Y-97281059D01*
X171637067Y-97172015D01*
X171633573Y-97123227D01*
X171607598Y-97086496D01*
X171537965Y-97071313D01*
X171403619Y-97068331D01*
X171309871Y-97064869D01*
X171198124Y-97049292D01*
X171143655Y-97025425D01*
X171141434Y-97020855D01*
X171165932Y-96993723D01*
X171247347Y-96980936D01*
X171361343Y-96981331D01*
G37*
G36*
X171695339Y-93468092D02*
G01*
X171604888Y-93571696D01*
X171561258Y-93611361D01*
X171450218Y-93690751D01*
X171332435Y-93755369D01*
X171232742Y-93792588D01*
X171175972Y-93789781D01*
X171174960Y-93788541D01*
X171198066Y-93758801D01*
X171277147Y-93720355D01*
X171323951Y-93697922D01*
X171442828Y-93618797D01*
X171561983Y-93517373D01*
X171602842Y-93479270D01*
X171688709Y-93414780D01*
X171721410Y-93413420D01*
X171695339Y-93468092D01*
G37*
G36*
X171205192Y-92990807D02*
G01*
X171297934Y-93021061D01*
X171422540Y-93035222D01*
X171536427Y-93023252D01*
X171639888Y-92990807D01*
X171692434Y-92970470D01*
X171722878Y-92987480D01*
X171721061Y-92994453D01*
X171670659Y-93035794D01*
X171572709Y-93078128D01*
X171512956Y-93092012D01*
X171383207Y-93096663D01*
X171256518Y-93077106D01*
X171160359Y-93038869D01*
X171122202Y-92987480D01*
X171137926Y-92969880D01*
X171205192Y-92990807D01*
G37*
G36*
X171553641Y-91501416D02*
G01*
X171633308Y-91522810D01*
X171676536Y-91565712D01*
X171699994Y-91614211D01*
X171721573Y-91696379D01*
X171721583Y-91697582D01*
X171690072Y-91769834D01*
X171615821Y-91857449D01*
X171528223Y-91931043D01*
X171456669Y-91961228D01*
X171449209Y-91959839D01*
X171455842Y-91929349D01*
X171519077Y-91871839D01*
X171599244Y-91788483D01*
X171637067Y-91680941D01*
X171636465Y-91662211D01*
X171618016Y-91603744D01*
X171561875Y-91565271D01*
X171452006Y-91539717D01*
X171272371Y-91520003D01*
X171243576Y-91517262D01*
X171200989Y-91509304D01*
X171241626Y-91502931D01*
X171366776Y-91497840D01*
X171416058Y-91496825D01*
X171553641Y-91501416D01*
G37*
G36*
X171553641Y-90814930D02*
G01*
X171633308Y-90836324D01*
X171676536Y-90879226D01*
X171699994Y-90927725D01*
X171721573Y-91009892D01*
X171721583Y-91011096D01*
X171690072Y-91083347D01*
X171615821Y-91170963D01*
X171528223Y-91244556D01*
X171456669Y-91274742D01*
X171449209Y-91273352D01*
X171455842Y-91242862D01*
X171519077Y-91185352D01*
X171599244Y-91101996D01*
X171637067Y-90994454D01*
X171636465Y-90975725D01*
X171618016Y-90917257D01*
X171561875Y-90878785D01*
X171452006Y-90853230D01*
X171272371Y-90833516D01*
X171243576Y-90830776D01*
X171200989Y-90822817D01*
X171241626Y-90816444D01*
X171366776Y-90811354D01*
X171416058Y-90810339D01*
X171553641Y-90814930D01*
G37*
G36*
X171690951Y-99172062D02*
G01*
X171781452Y-99176089D01*
X171796609Y-99193555D01*
X171746856Y-99236418D01*
X171654726Y-99288279D01*
X171579979Y-99290772D01*
X171551256Y-99235053D01*
X171584481Y-99186832D01*
X171690699Y-99172060D01*
X171690951Y-99172062D01*
G37*
G36*
X171781238Y-98627402D02*
G01*
X171800971Y-98705077D01*
X171808689Y-98827452D01*
X171805793Y-98904728D01*
X171790258Y-99003391D01*
X171765783Y-99041979D01*
X171750328Y-99027502D01*
X171730595Y-98949828D01*
X171722878Y-98827452D01*
X171725773Y-98750176D01*
X171741308Y-98651513D01*
X171765783Y-98612925D01*
X171781238Y-98627402D01*
G37*
G36*
X171690951Y-92564630D02*
G01*
X171781452Y-92568656D01*
X171796609Y-92586122D01*
X171746856Y-92628986D01*
X171654726Y-92680847D01*
X171579979Y-92683340D01*
X171551256Y-92627621D01*
X171584481Y-92579399D01*
X171690699Y-92564627D01*
X171690951Y-92564630D01*
G37*
G36*
X171790721Y-92150300D02*
G01*
X171808689Y-92220020D01*
X171800643Y-92269895D01*
X171765783Y-92305831D01*
X171740845Y-92289740D01*
X171722878Y-92220020D01*
X171730923Y-92170144D01*
X171765783Y-92134209D01*
X171790721Y-92150300D01*
G37*
D13*
%TO.C,U1*%
X152374600Y-86334600D02*
X149834600Y-86334600D01*
X167614600Y-83794600D02*
X149834600Y-83794600D01*
X149834600Y-83794600D02*
X149834600Y-116814600D01*
X149834600Y-116814600D02*
X167614600Y-116814600D01*
X167614600Y-116814600D02*
X167614600Y-83794600D01*
D11*
X165069235Y-92323630D02*
X164569235Y-92323630D01*
X164569235Y-92223630D01*
X165069235Y-92223630D01*
X165069235Y-92323630D01*
G36*
X165069235Y-92323630D02*
G01*
X164569235Y-92323630D01*
X164569235Y-92223630D01*
X165069235Y-92223630D01*
X165069235Y-92323630D01*
G37*
X164669235Y-92523630D02*
X164569235Y-92523630D01*
X164569235Y-92223630D01*
X164669235Y-92223630D01*
X164669235Y-92523630D01*
G36*
X164669235Y-92523630D02*
G01*
X164569235Y-92523630D01*
X164569235Y-92223630D01*
X164669235Y-92223630D01*
X164669235Y-92523630D01*
G37*
X164669235Y-93023630D02*
X164569235Y-93023630D01*
X164569235Y-92823630D01*
X164669235Y-92823630D01*
X164669235Y-93023630D01*
G36*
X164669235Y-93023630D02*
G01*
X164569235Y-93023630D01*
X164569235Y-92823630D01*
X164669235Y-92823630D01*
X164669235Y-93023630D01*
G37*
X165069235Y-93023630D02*
X164969235Y-93023630D01*
X164969235Y-92223630D01*
X165069235Y-92223630D01*
X165069235Y-93023630D01*
G36*
X165069235Y-93023630D02*
G01*
X164969235Y-93023630D01*
X164969235Y-92223630D01*
X165069235Y-92223630D01*
X165069235Y-93023630D01*
G37*
X164869235Y-92723630D02*
X164769235Y-92723630D01*
X164769235Y-92623630D01*
X164869235Y-92623630D01*
X164869235Y-92723630D01*
G36*
X164869235Y-92723630D02*
G01*
X164769235Y-92723630D01*
X164769235Y-92623630D01*
X164869235Y-92623630D01*
X164869235Y-92723630D01*
G37*
D13*
X152374600Y-86334600D02*
X152374600Y-88874600D01*
X152374600Y-88874600D02*
X149834600Y-88874600D01*
%TD*%
D14*
%TO.C,U1*%
X166344600Y-87604600D03*
X151104600Y-115544600D03*
X166344600Y-90144600D03*
X166344600Y-92684600D03*
X166344600Y-95224600D03*
X166344600Y-97764600D03*
X166344600Y-100304600D03*
X166344600Y-102844600D03*
X166344600Y-105384600D03*
X166344600Y-107924600D03*
X166344600Y-110464600D03*
X166344600Y-113004600D03*
X166344600Y-115544600D03*
X151104600Y-113004600D03*
X151104600Y-110464600D03*
X151104600Y-107924600D03*
X151104600Y-105384600D03*
X151104600Y-102844600D03*
X151104600Y-100304600D03*
X151104600Y-97764600D03*
X151104600Y-95224600D03*
X151104600Y-92684600D03*
X151104600Y-90144600D03*
D15*
X151104600Y-87604600D03*
%TD*%
%LPC*%
D16*
%TO.C,J1*%
X160730000Y-103378000D03*
X159460000Y-105918000D03*
X158190000Y-103378000D03*
D17*
X156920000Y-105918000D03*
D18*
X162510000Y-112268000D03*
X155010000Y-112268000D03*
%TD*%
D19*
%TO.C,J2*%
X154950000Y-115570000D03*
X157490000Y-115570000D03*
X160030000Y-115570000D03*
X162570000Y-115570000D03*
%TD*%
D20*
%TO.C,SW1*%
X161948000Y-92928000D03*
X155448000Y-92928000D03*
X161948000Y-88428000D03*
X155448000Y-88428000D03*
%TD*%
D21*
%TO.C,REF\u002A\u002A*%
X147320000Y-114300000D03*
%TD*%
%TO.C,*%
X147320000Y-114300000D03*
%TD*%
%TO.C,REF\u002A\u002A*%
X170180000Y-114300000D03*
%TD*%
%TO.C,*%
X170180000Y-114300000D03*
%TD*%
%TO.C,REF\u002A\u002A*%
X170180000Y-86360000D03*
%TD*%
%TO.C,*%
X170180000Y-86360000D03*
%TD*%
%TO.C,REF\u002A\u002A*%
X147320000Y-86360000D03*
%TD*%
D14*
%TO.C,U1*%
X166344600Y-87604600D03*
X151104600Y-115544600D03*
X166344600Y-90144600D03*
X166344600Y-92684600D03*
X166344600Y-95224600D03*
X166344600Y-97764600D03*
X166344600Y-100304600D03*
X166344600Y-102844600D03*
X166344600Y-105384600D03*
X166344600Y-107924600D03*
X166344600Y-110464600D03*
X166344600Y-113004600D03*
X166344600Y-115544600D03*
X151104600Y-113004600D03*
X151104600Y-110464600D03*
X151104600Y-107924600D03*
X151104600Y-105384600D03*
X151104600Y-102844600D03*
X151104600Y-100304600D03*
X151104600Y-97764600D03*
X151104600Y-95224600D03*
X151104600Y-92684600D03*
X151104600Y-90144600D03*
D15*
X151104600Y-87604600D03*
%TD*%
%LPD*%
M02*
