%TF.GenerationSoftware,KiCad,Pcbnew,9.0.6*%
%TF.CreationDate,2026-08-20T01:04:15+02:00*%
%TF.ProjectId,wyse-mod-pcb,77797365-2d6d-46f6-942d-7063622e6b69,rev?*%
%TF.SameCoordinates,Original*%
%TF.FileFunction,Soldermask,Bot*%
%TF.FilePolarity,Negative*%
%FSLAX46Y46*%
G04 Gerber Fmt 4.6, Leading zero omitted, Abs format (unit mm)*
G04 Created by KiCad (PCBNEW 9.0.6) date 2026-08-20 01:04:15*
%MOMM*%
%LPD*%
G01*
G04 APERTURE LIST*
G04 Aperture macros list*
%AMRoundRect*
0 Rectangle with rounded corners*
0 $1 Rounding radius*
0 $2 $3 $4 $5 $6 $7 $8 $9 X,Y pos of 4 corners*
0 Add a 4 corners polygon primitive as box body*
4,1,4,$2,$3,$4,$5,$6,$7,$8,$9,$2,$3,0*
0 Add four circle primitives for the rounded corners*
1,1,$1+$1,$2,$3*
1,1,$1+$1,$4,$5*
1,1,$1+$1,$6,$7*
1,1,$1+$1,$8,$9*
0 Add four rect primitives between the rounded corners*
20,1,$1+$1,$2,$3,$4,$5,0*
20,1,$1+$1,$4,$5,$6,$7,0*
20,1,$1+$1,$6,$7,$8,$9,0*
20,1,$1+$1,$8,$9,$2,$3,0*%
G04 Aperture macros list end*
%ADD10C,1.800000*%
%ADD11RoundRect,0.250000X-0.650000X-0.650000X0.650000X-0.650000X0.650000X0.650000X-0.650000X0.650000X0*%
%ADD12C,3.250000*%
%ADD13C,1.700000*%
%ADD14C,2.000000*%
%ADD15C,3.200000*%
%ADD16C,1.752600*%
%ADD17R,1.752600X1.752600*%
G04 APERTURE END LIST*
D10*
%TO.C,J1*%
X160730000Y-103378000D03*
X159460000Y-105918000D03*
X158190000Y-103378000D03*
D11*
X156920000Y-105918000D03*
D12*
X162510000Y-112268000D03*
X155010000Y-112268000D03*
%TD*%
D13*
%TO.C,J2*%
X154950000Y-115570000D03*
X157490000Y-115570000D03*
X160030000Y-115570000D03*
X162570000Y-115570000D03*
%TD*%
D14*
%TO.C,SW1*%
X161948000Y-92928000D03*
X155448000Y-92928000D03*
X161948000Y-88428000D03*
X155448000Y-88428000D03*
%TD*%
D15*
%TO.C,REF\u002A\u002A*%
X147320000Y-114300000D03*
%TD*%
%TO.C,*%
X147320000Y-114300000D03*
%TD*%
%TO.C,REF\u002A\u002A*%
X170180000Y-114300000D03*
%TD*%
%TO.C,*%
X170180000Y-114300000D03*
%TD*%
%TO.C,REF\u002A\u002A*%
X170180000Y-86360000D03*
%TD*%
%TO.C,*%
X170180000Y-86360000D03*
%TD*%
%TO.C,REF\u002A\u002A*%
X147320000Y-86360000D03*
%TD*%
D16*
%TO.C,U1*%
X166344600Y-87604600D03*
X151104600Y-115544600D03*
X166344600Y-90144600D03*
X166344600Y-92684600D03*
X166344600Y-95224600D03*
X166344600Y-97764600D03*
X166344600Y-100304600D03*
X166344600Y-102844600D03*
X166344600Y-105384600D03*
X166344600Y-107924600D03*
X166344600Y-110464600D03*
X166344600Y-113004600D03*
X166344600Y-115544600D03*
X151104600Y-113004600D03*
X151104600Y-110464600D03*
X151104600Y-107924600D03*
X151104600Y-105384600D03*
X151104600Y-102844600D03*
X151104600Y-100304600D03*
X151104600Y-97764600D03*
X151104600Y-95224600D03*
X151104600Y-92684600D03*
X151104600Y-90144600D03*
D17*
X151104600Y-87604600D03*
%TD*%
M02*
